<svg width="24" height="24" viewBox="0 0 24 24" fill="none" xmlns="http://www.w3.org/2000/svg">
<g id="Graduated">
<path id="Vector" fill-rule="evenodd" clip-rule="evenodd" d="M17.4254 14.5919C17.6247 14.495 17.8566 14.6401 17.8566 14.8617V17.3123C17.8566 18.3723 17.2366 19.3223 16.2666 19.7323C14.8466 20.3323 13.4066 20.6323 11.9566 20.6323C10.5066 20.6323 9.04656 20.3323 7.58656 19.7323C6.61656 19.3223 5.97656 18.3623 5.97656 17.2923V14.7731C5.97656 14.5512 6.20913 14.4061 6.40844 14.5036L9.75656 16.1423C10.4259 16.5438 11.227 16.6723 11.9966 16.6723C12.7666 16.6723 13.5266 16.4923 14.2366 16.1423L17.4254 14.5919Z" fill="#C71F2C"/>
<path id="Vector_2" opacity="0.4" d="M20.2339 11.8311C21.1639 11.3711 21.7439 10.4411 21.7439 9.40109C21.7439 8.36109 21.1639 7.42109 20.2239 6.96109L13.6839 3.76109C12.6139 3.24109 11.3839 3.24109 10.3039 3.76109L3.77391 6.96109C2.83391 7.42109 2.25391 8.35109 2.25391 9.39109C2.25391 10.2711 2.66391 11.0711 3.35391 11.5711L4.69391 12.2711L6.06391 12.9411C6.09391 12.9611 6.11391 12.9811 6.14391 12.9911L10.3039 15.0211C10.8286 15.2835 11.4053 15.4111 11.9939 15.4111C12.5739 15.4111 13.1439 15.2811 13.6839 15.0211L20.2339 11.8311Z" fill="#C71F2C"/>
<path id="Vector_3" fill-rule="evenodd" clip-rule="evenodd" d="M4.69114 12.2841C4.82114 11.9741 5.11114 11.7341 5.47114 11.6741L9.22114 11.0841C9.63114 11.0141 9.91114 10.6341 9.85114 10.2241C9.78114 9.81403 9.39114 9.53403 8.99114 9.59403L5.24114 10.1841C4.3957 10.3233 3.70855 10.8583 3.3568 11.5725L3.35547 11.5716C3.19547 11.9116 3.10547 12.2816 3.10547 12.6716V16.7516C3.10547 17.1716 3.44547 17.5016 3.85547 17.5016C4.26547 17.5016 4.60547 17.1716 4.60547 16.7516V12.6716C4.60547 12.5361 4.63356 12.4007 4.68972 12.2833L4.69114 12.2841Z" fill="#C71F2C"/>
</g>
</svg>
