<svg width="24" height="24" viewBox="0 0 24 24" fill="none" xmlns="http://www.w3.org/2000/svg">
<g id="Medal">
<path id="Vector" fill-rule="evenodd" clip-rule="evenodd" d="M19.6975 3.47528L16.4875 9.87527C16.0875 9.57527 15.6475 9.31527 15.1875 9.11528L18.3575 2.79528C18.5375 2.42528 18.9975 2.27528 19.3675 2.46528C19.7375 2.64528 19.8875 3.10528 19.6975 3.47528Z" fill="#C71F2C"/>
<path id="Vector_2" fill-rule="evenodd" clip-rule="evenodd" d="M10.1696 9.04697C9.69954 9.22697 9.25954 9.46697 8.84954 9.75697L5.31954 3.50697C5.10954 3.14697 5.23954 2.68697 5.59954 2.48697C5.95954 2.28697 6.41954 2.40697 6.61954 2.76697L10.1696 9.04697Z" fill="#C71F2C"/>
<path id="Vector_3" fill-rule="evenodd" clip-rule="evenodd" d="M16.0381 3.46747L13.5781 8.35746L13.7681 8.68747C13.3881 8.61747 12.9881 8.57747 12.5881 8.57747C12.3881 8.57747 12.1881 8.58746 11.9981 8.60746L9.16812 3.50747C8.96812 3.13747 9.09812 2.68747 9.45812 2.48747C9.82812 2.28747 10.2781 2.41747 10.4781 2.77747L12.6981 6.76747L14.6981 2.78747C14.8781 2.41747 15.3281 2.26747 15.6981 2.45747C16.0681 2.64747 16.2181 3.09747 16.0381 3.46747Z" fill="#C71F2C"/>
<path id="Vector_4" opacity="0.4" fill-rule="evenodd" clip-rule="evenodd" d="M16.4903 9.87813C16.0903 9.57813 15.6503 9.31813 15.1903 9.11813C14.7403 8.91813 14.2703 8.77813 13.7703 8.68812C13.3903 8.61812 12.9903 8.57812 12.5903 8.57812C12.3903 8.57812 12.1903 8.58812 12.0003 8.60812C11.3603 8.66812 10.7403 8.81812 10.1703 9.04812C9.70031 9.22812 9.26031 9.46812 8.85031 9.75812C7.17031 10.9481 6.07031 12.8981 6.07031 15.1081C6.07031 18.6981 9.00031 21.6281 12.5903 21.6281C16.1903 21.6281 19.1203 18.6981 19.1203 15.1081C19.1203 12.9681 18.0903 11.0681 16.4903 9.87813Z" fill="#C71F2C"/>
<path id="Vector_5" fill-rule="evenodd" clip-rule="evenodd" d="M15.4463 14.8408L14.5233 15.7258L14.7413 16.9748C14.8073 17.3918 14.5263 17.7818 14.1143 17.8468C13.9513 17.8738 13.7843 17.8468 13.6383 17.7678L12.5063 17.1818L11.3553 17.7708C11.2483 17.8288 11.1293 17.8588 11.0073 17.8588C10.9313 17.8588 10.8563 17.8478 10.7833 17.8248C10.5893 17.7658 10.4293 17.6328 10.3363 17.4528C10.2593 17.3088 10.2313 17.1398 10.2583 16.9778L10.4763 15.7258L9.55537 14.8418C9.41137 14.7038 9.32837 14.5158 9.32437 14.3148C9.32037 14.1148 9.39537 13.9238 9.53537 13.7798C9.64837 13.6588 9.80737 13.5788 9.97837 13.5558L11.2453 13.3738L11.8233 12.2318C11.9193 12.0468 12.0783 11.9128 12.2733 11.8518C12.4683 11.7908 12.6743 11.8088 12.8513 11.9038C12.9893 11.9758 13.1023 12.0878 13.1753 12.2258C13.1763 12.2288 13.1773 12.2308 13.1783 12.2328L13.7473 13.3698L15.0263 13.5568C15.2213 13.5818 15.3973 13.6838 15.5193 13.8428C15.6423 14.0028 15.6953 14.1998 15.6693 14.3988C15.6473 14.5648 15.5683 14.7228 15.4463 14.8408Z" fill="#C71F2C"/>
</g>
</svg>
