<?xml version="1.0" encoding="utf-8"?>
<svg width="131" height="204" viewBox="0 0 131 204" fill="none" xmlns="http://www.w3.org/2000/svg">
  <path d="M0 0H131V138.5C131 174.675 101.675 204 65.5 204C29.3253 204 0 174.675 0 138.5V0Z" fill="#C71F2C"/>
  <g clip-path="url(#clip0_2563_113853)">
    <path d="M84.0057 75.828C84.8294 75.9253 85.5665 76.0129 86.3887 76.111L86.1797 75.4041C86.1455 75.2806 86.1934 75.1443 86.2876 75.0671L88.6782 73.0692L88.182 72.8296C87.9655 72.7479 88.0263 72.6229 88.1045 72.3203L88.4693 70.9529L87.0817 71.2547C86.9465 71.2757 86.856 71.1873 86.8355 71.1027L86.6562 70.4617L85.5582 71.7258C85.4024 71.9287 85.087 71.9287 85.1851 71.4607L85.6547 68.8959L85.0262 69.2306C84.8484 69.3317 84.6729 69.3497 84.5733 69.1677L83.6896 67.5L82.8059 69.1677C82.7071 69.3497 82.5308 69.3317 82.3537 69.2306L81.7253 68.8959L82.1941 71.4607C82.2922 71.9287 81.9768 71.9287 81.8203 71.7258L80.7222 70.4617L80.5429 71.1027C80.5216 71.1881 80.4335 71.2757 80.2982 71.2547L78.9092 70.9529L79.2739 72.3203C79.3514 72.6229 79.4137 72.7479 79.1956 72.8296L78.7002 73.0692L81.0908 75.0671C81.1858 75.1443 81.2344 75.2798 81.2002 75.4041L80.9905 76.111C81.8134 76.0129 82.5498 75.9253 83.3735 75.828L83.5551 75.983L83.5179 77.5279H83.8621L83.8241 75.983L84.0065 75.828H84.0057Z" fill="white"/>
    <path d="M44.9997 98.9203V92.8486C44.9997 88.3263 48.7201 84.6592 53.3098 84.6592H57.0584V79.9062H52.8076C45.8318 79.9062 40.1768 85.4792 40.1768 92.3536V103.673H57.0584V98.9195H44.9997V98.9203Z" fill="white"/>
    <path d="M59.4697 79.9062V103.674H64.2927V96.5442H76.3521V95.4277V91.7898V84.66H71.5283V91.7898H64.2927V84.66H71.5283V79.9062H59.4697Z" fill="white"/>
    <path d="M76.3516 84.66V79.9062H90.8221V91.2259C90.8221 98.1011 85.167 103.674 78.1905 103.674H66.7041V98.9211H77.689C82.2779 98.9211 85.9991 95.2547 85.9991 90.7316V84.66H76.3516Z" fill="white"/>
    <path d="M41.7161 109.5C41.2472 109.5 40.8764 109.346 40.6043 109.04C40.3323 108.734 40.1963 108.316 40.1963 107.79C40.1963 107.264 40.3323 106.842 40.6036 106.536C40.8749 106.231 41.2449 106.078 41.7138 106.078C42.0899 106.078 42.4083 106.187 42.6697 106.405C42.9311 106.623 43.0793 106.901 43.1142 107.242H42.5322C42.4911 107.046 42.3962 106.89 42.248 106.773C42.0998 106.656 41.922 106.598 41.7138 106.598C41.4326 106.598 41.2107 106.704 41.0466 106.918C40.8832 107.131 40.8012 107.421 40.8012 107.789C40.8012 108.156 40.8832 108.447 41.0466 108.66C41.21 108.874 41.4334 108.981 41.7161 108.981C41.9258 108.981 42.1044 108.927 42.2525 108.819C42.4007 108.711 42.4949 108.567 42.5345 108.384H43.1165C43.077 108.718 42.9288 108.987 42.672 109.193C42.4152 109.397 42.0968 109.5 41.7161 109.5Z" fill="white"/>
    <path d="M44.9048 106.781L44.4512 108.125H45.3927L44.9436 106.781H44.9048ZM45.8099 109.419L45.5302 108.586H44.3129L44.0287 109.419H43.4307L44.6039 106.16H45.2681L46.4436 109.419H45.8091H45.8099Z" fill="white"/>
    <path d="M47.5795 109.419H47.0088V106.16H47.5225L49.1448 108.376H49.1843V106.16H49.752V109.419H49.2413L47.6182 107.201H47.5795V109.419Z" fill="white"/>
    <path d="M51.8033 106.781L51.3496 108.125H52.2911L51.842 106.781H51.8033ZM52.7083 109.419L52.4287 108.586H51.2113L50.9271 109.419H50.3291L51.5024 106.16H52.1665L53.342 109.419H52.7075H52.7083Z" fill="white"/>
    <path d="M54.5023 106.664V108.916H55.073C55.4035 108.916 55.6573 108.818 55.8367 108.622C56.0153 108.427 56.1049 108.148 56.1049 107.784C56.1049 107.421 56.0145 107.153 55.8336 106.958C55.6528 106.762 55.3997 106.664 55.0738 106.664H54.5031H54.5023ZM53.9111 106.16H55.1513C55.6429 106.16 56.0259 106.301 56.2979 106.584C56.5707 106.866 56.7067 107.263 56.7067 107.775C56.7067 108.288 56.5715 108.703 56.3002 108.989C56.0289 109.276 55.6459 109.42 55.1513 109.42H53.9111V106.161V106.16Z" fill="white"/>
    <path d="M58.4556 106.781L58.002 108.125H58.9435L58.4944 106.781H58.4556ZM59.3606 109.419L59.081 108.586H57.8637L57.5795 109.419H56.9814L58.1547 106.16H58.8188L59.9944 109.419H59.3599H59.3606Z" fill="white"/>
    <path d="M62.8812 106.648V107.868H63.4656C63.6783 107.868 63.8425 107.816 63.9595 107.71C64.0765 107.605 64.135 107.456 64.135 107.263C64.135 107.071 64.0773 106.913 63.9618 106.807C63.8463 106.702 63.6814 106.649 63.4679 106.649H62.8812V106.648ZM62.29 106.16H63.6236C63.9534 106.16 64.2209 106.262 64.4268 106.465C64.632 106.668 64.7353 106.934 64.7353 107.262C64.7353 107.591 64.6297 107.847 64.4177 108.049C64.2057 108.25 63.9329 108.351 63.5986 108.351H62.8812V109.42H62.29V106.161V106.16Z" fill="white"/>
    <path d="M65.9789 106.643V107.734H66.662C66.8497 107.734 66.9949 107.687 67.0982 107.592C67.2015 107.497 67.2532 107.363 67.2532 107.19C67.2532 107.017 67.1993 106.886 67.0914 106.789C66.9835 106.692 66.836 106.644 66.6483 106.644H65.9789V106.643ZM65.9789 108.197V109.419H65.3877V106.16H66.7304C67.0777 106.16 67.3528 106.252 67.5556 106.434C67.7593 106.617 67.8604 106.865 67.8604 107.179C67.8604 107.396 67.8056 107.587 67.6955 107.754C67.5853 107.92 67.4325 108.038 67.2373 108.107L67.9591 109.419H67.2828L66.6339 108.197H65.9781H65.9789Z" fill="white"/>
    <path d="M69.1625 106.16H68.5713V109.419H69.1625V106.16Z" fill="white"/>
    <path d="M73.3964 109.419H72.8462V107.127H72.8143L71.9002 109.293H71.4777L70.5635 107.127H70.5316V109.419H69.9814V106.16H70.6737L71.6684 108.534H71.7094L72.7049 106.16H73.3964V109.419Z" fill="white"/>
    <path d="M76.3525 108.916V109.419H74.2119V106.16H76.3525V106.664H74.8031V107.529H76.2674V108.003H74.8031V108.916H76.3525Z" fill="white"/>
    <path d="M78.583 108.531H79.1605C79.162 108.665 79.2061 108.773 79.2935 108.854C79.3801 108.935 79.4941 108.976 79.6347 108.976C79.7905 108.976 79.9098 108.93 79.9926 108.84C80.0754 108.748 80.1165 108.616 80.1165 108.441V106.16H80.7076V108.446C80.7076 108.78 80.6134 109.04 80.4257 109.224C80.238 109.409 79.9759 109.502 79.6415 109.502C79.3072 109.502 79.0678 109.413 78.874 109.237C78.6795 109.061 78.583 108.826 78.583 108.533" fill="white"/>
    <path d="M82.953 106.596C82.6581 106.596 82.4241 106.704 82.2501 106.919C82.0768 107.135 81.9902 107.424 81.9902 107.788C81.9902 108.153 82.076 108.445 82.2478 108.66C82.4195 108.875 82.6543 108.983 82.953 108.983C83.2516 108.983 83.4788 108.875 83.6505 108.659C83.8223 108.442 83.9081 108.152 83.9081 107.788C83.9081 107.423 83.8223 107.133 83.6505 106.918C83.4788 106.703 83.2455 106.596 82.953 106.596M82.953 106.078C83.4324 106.078 83.8131 106.232 84.0928 106.539C84.3732 106.846 84.513 107.262 84.513 107.788C84.513 108.313 84.3732 108.73 84.0935 109.038C83.8139 109.345 83.4332 109.5 82.9522 109.5C82.4712 109.5 82.0852 109.346 81.8048 109.039C81.5244 108.732 81.3838 108.315 81.3838 107.788C81.3838 107.261 81.5251 106.846 81.807 106.539C82.089 106.232 82.4704 106.078 82.9522 106.078" fill="white"/>
    <path d="M85.7797 108.956H86.4674C86.6855 108.956 86.8519 108.913 86.9643 108.827C87.0775 108.74 87.1338 108.614 87.1338 108.449C87.1338 108.283 87.0753 108.163 86.9582 108.078C86.8412 107.993 86.6703 107.951 86.4438 107.951H85.7797V108.956ZM85.7797 106.623V107.531H86.3503C86.5601 107.531 86.7189 107.492 86.8283 107.414C86.9377 107.337 86.9924 107.224 86.9924 107.077C86.9924 106.929 86.9423 106.822 86.8435 106.742C86.744 106.662 86.6049 106.622 86.4263 106.622H85.7797V106.623ZM86.6026 109.419H85.1885V106.16H86.5707C86.8838 106.16 87.13 106.233 87.3086 106.378C87.4879 106.523 87.5768 106.722 87.5768 106.973C87.5768 107.145 87.5206 107.298 87.4073 107.432C87.2941 107.566 87.1543 107.646 86.9879 107.671V107.712C87.2113 107.733 87.3921 107.815 87.5312 107.959C87.6703 108.103 87.7394 108.281 87.7394 108.493C87.7394 108.779 87.6383 109.005 87.4362 109.171C87.2341 109.336 86.956 109.419 86.6034 109.419" fill="white"/>
    <path d="M88.2314 108.534H88.809C88.8272 108.68 88.9047 108.796 89.0407 108.883C89.1767 108.97 89.3492 109.013 89.5582 109.013C89.7535 109.013 89.9146 108.969 90.0407 108.88C90.1669 108.792 90.2299 108.68 90.2299 108.543C90.2299 108.425 90.1821 108.33 90.0863 108.256C89.9913 108.182 89.8371 108.121 89.6243 108.073L89.1957 107.976C88.8963 107.909 88.6737 107.801 88.5301 107.651C88.3857 107.502 88.3135 107.305 88.3135 107.063C88.3135 106.766 88.426 106.528 88.6517 106.348C88.8773 106.168 89.1745 106.078 89.5445 106.078C89.891 106.078 90.1783 106.167 90.4062 106.345C90.6342 106.522 90.755 106.751 90.7687 107.031H90.2026C90.1828 106.888 90.1137 106.775 89.9944 106.691C89.8751 106.606 89.7246 106.564 89.543 106.564C89.3523 106.564 89.1988 106.606 89.084 106.689C88.9685 106.773 88.9108 106.884 88.9108 107.022C88.9108 107.133 88.9556 107.222 89.046 107.291C89.1365 107.359 89.2839 107.416 89.4883 107.463L89.869 107.55C90.2033 107.623 90.4457 107.733 90.597 107.879C90.7474 108.025 90.8226 108.222 90.8226 108.471C90.8226 108.788 90.7064 109.04 90.4731 109.224C90.2398 109.408 89.9237 109.501 89.5232 109.501C89.1441 109.501 88.8386 109.414 88.6053 109.239C88.372 109.065 88.2482 108.829 88.233 108.534" fill="white"/>
  </g>
  <defs>
    <clipPath id="clip0_2563_113853">
      <rect width="50.6471" height="42" fill="white" transform="translate(40.1768 67.5)"/>
    </clipPath>
  </defs>
  <path d="M 5.841 123.324 C 5.841 122.508 6.025 121.776 6.393 121.128 C 6.761 120.472 7.261 119.96 7.893 119.592 C 8.533 119.224 9.241 119.04 10.017 119.04 C 10.929 119.04 11.725 119.26 12.405 119.7 C 13.085 120.14 13.581 120.764 13.893 121.572 L 12.585 121.572 C 12.353 121.068 12.017 120.68 11.577 120.408 C 11.145 120.136 10.625 120 10.017 120 C 9.433 120 8.909 120.136 8.445 120.408 C 7.981 120.68 7.617 121.068 7.353 121.572 C 7.089 122.068 6.957 122.652 6.957 123.324 C 6.957 123.988 7.089 124.572 7.353 125.076 C 7.617 125.572 7.981 125.956 8.445 126.228 C 8.909 126.5 9.433 126.636 10.017 126.636 C 10.625 126.636 11.145 126.504 11.577 126.24 C 12.017 125.968 12.353 125.58 12.585 125.076 L 13.893 125.076 C 13.581 125.876 13.085 126.496 12.405 126.936 C 11.725 127.368 10.929 127.584 10.017 127.584 C 9.241 127.584 8.533 127.404 7.893 127.044 C 7.261 126.676 6.761 126.168 6.393 125.52 C 6.025 124.872 5.841 124.14 5.841 123.324 Z M 15.111 124.2 C 15.111 123.528 15.247 122.94 15.519 122.436 C 15.791 121.924 16.163 121.528 16.635 121.248 C 17.115 120.968 17.647 120.828 18.231 120.828 C 18.807 120.828 19.307 120.952 19.731 121.2 C 20.155 121.448 20.471 121.76 20.679 122.136 L 20.679 120.936 L 21.783 120.936 L 21.783 127.512 L 20.679 127.512 L 20.679 126.288 C 20.463 126.672 20.139 126.992 19.707 127.248 C 19.283 127.496 18.787 127.62 18.219 127.62 C 17.635 127.62 17.107 127.476 16.635 127.188 C 16.163 126.9 15.791 126.496 15.519 125.976 C 15.247 125.456 15.111 124.864 15.111 124.2 Z M 20.679 124.212 C 20.679 123.716 20.579 123.284 20.379 122.916 C 20.179 122.548 19.907 122.268 19.563 122.076 C 19.227 121.876 18.855 121.776 18.447 121.776 C 18.039 121.776 17.667 121.872 17.331 122.064 C 16.995 122.256 16.727 122.536 16.527 122.904 C 16.327 123.272 16.227 123.704 16.227 124.2 C 16.227 124.704 16.327 125.144 16.527 125.52 C 16.727 125.888 16.995 126.172 17.331 126.372 C 17.667 126.564 18.039 126.66 18.447 126.66 C 18.855 126.66 19.227 126.564 19.563 126.372 C 19.907 126.172 20.179 125.888 20.379 125.52 C 20.579 125.144 20.679 124.708 20.679 124.212 Z M 26.832 120.816 C 27.632 120.816 28.28 121.06 28.776 121.548 C 29.272 122.028 29.52 122.724 29.52 123.636 L 29.52 127.512 L 28.44 127.512 L 28.44 123.792 C 28.44 123.136 28.276 122.636 27.948 122.292 C 27.62 121.94 27.172 121.764 26.604 121.764 C 26.028 121.764 25.568 121.944 25.224 122.304 C 24.888 122.664 24.72 123.188 24.72 123.876 L 24.72 127.512 L 23.628 127.512 L 23.628 120.936 L 24.72 120.936 L 24.72 121.872 C 24.936 121.536 25.228 121.276 25.596 121.092 C 25.972 120.908 26.384 120.816 26.832 120.816 Z M 30.896 124.2 C 30.896 123.528 31.032 122.94 31.304 122.436 C 31.576 121.924 31.948 121.528 32.42 121.248 C 32.9 120.968 33.432 120.828 34.016 120.828 C 34.592 120.828 35.092 120.952 35.516 121.2 C 35.94 121.448 36.256 121.76 36.464 122.136 L 36.464 120.936 L 37.568 120.936 L 37.568 127.512 L 36.464 127.512 L 36.464 126.288 C 36.248 126.672 35.924 126.992 35.492 127.248 C 35.068 127.496 34.572 127.62 34.004 127.62 C 33.42 127.62 32.892 127.476 32.42 127.188 C 31.948 126.9 31.576 126.496 31.304 125.976 C 31.032 125.456 30.896 124.864 30.896 124.2 Z M 36.464 124.212 C 36.464 123.716 36.364 123.284 36.164 122.916 C 35.964 122.548 35.692 122.268 35.348 122.076 C 35.012 121.876 34.64 121.776 34.232 121.776 C 33.824 121.776 33.452 121.872 33.116 122.064 C 32.78 122.256 32.512 122.536 32.312 122.904 C 32.112 123.272 32.012 123.704 32.012 124.2 C 32.012 124.704 32.112 125.144 32.312 125.52 C 32.512 125.888 32.78 126.172 33.116 126.372 C 33.452 126.564 33.824 126.66 34.232 126.66 C 34.64 126.66 35.012 126.564 35.348 126.372 C 35.692 126.172 35.964 125.888 36.164 125.52 C 36.364 125.144 36.464 124.708 36.464 124.212 Z M 39.005 124.2 C 39.005 123.528 39.141 122.94 39.413 122.436 C 39.685 121.924 40.057 121.528 40.529 121.248 C 41.009 120.968 41.545 120.828 42.137 120.828 C 42.649 120.828 43.125 120.948 43.565 121.188 C 44.005 121.42 44.341 121.728 44.573 122.112 L 44.573 118.632 L 45.677 118.632 L 45.677 127.512 L 44.573 127.512 L 44.573 126.276 C 44.357 126.668 44.037 126.992 43.613 127.248 C 43.189 127.496 42.693 127.62 42.125 127.62 C 41.541 127.62 41.009 127.476 40.529 127.188 C 40.057 126.9 39.685 126.496 39.413 125.976 C 39.141 125.456 39.005 124.864 39.005 124.2 Z M 44.573 124.212 C 44.573 123.716 44.473 123.284 44.273 122.916 C 44.073 122.548 43.801 122.268 43.457 122.076 C 43.121 121.876 42.749 121.776 42.341 121.776 C 41.933 121.776 41.561 121.872 41.225 122.064 C 40.889 122.256 40.621 122.536 40.421 122.904 C 40.221 123.272 40.121 123.704 40.121 124.2 C 40.121 124.704 40.221 125.144 40.421 125.52 C 40.621 125.888 40.889 126.172 41.225 126.372 C 41.561 126.564 41.933 126.66 42.341 126.66 C 42.749 126.66 43.121 126.564 43.457 126.372 C 43.801 126.172 44.073 125.888 44.273 125.52 C 44.473 125.144 44.573 124.708 44.573 124.212 Z M 47.115 124.2 C 47.115 123.528 47.251 122.94 47.523 122.436 C 47.795 121.924 48.167 121.528 48.639 121.248 C 49.119 120.968 49.651 120.828 50.235 120.828 C 50.811 120.828 51.311 120.952 51.735 121.2 C 52.159 121.448 52.475 121.76 52.683 122.136 L 52.683 120.936 L 53.787 120.936 L 53.787 127.512 L 52.683 127.512 L 52.683 126.288 C 52.467 126.672 52.143 126.992 51.711 127.248 C 51.287 127.496 50.791 127.62 50.223 127.62 C 49.639 127.62 49.111 127.476 48.639 127.188 C 48.167 126.9 47.795 126.496 47.523 125.976 C 47.251 125.456 47.115 124.864 47.115 124.2 Z M 52.683 124.212 C 52.683 123.716 52.583 123.284 52.383 122.916 C 52.183 122.548 51.911 122.268 51.567 122.076 C 51.231 121.876 50.859 121.776 50.451 121.776 C 50.043 121.776 49.671 121.872 49.335 122.064 C 48.999 122.256 48.731 122.536 48.531 122.904 C 48.331 123.272 48.231 123.704 48.231 124.2 C 48.231 124.704 48.331 125.144 48.531 125.52 C 48.731 125.888 48.999 126.172 49.335 126.372 C 49.671 126.564 50.043 126.66 50.451 126.66 C 50.859 126.66 51.231 126.564 51.567 126.372 C 51.911 126.172 52.183 125.888 52.383 125.52 C 52.583 125.144 52.683 124.708 52.683 124.212 Z M 64.423 121.596 C 64.423 122.292 64.183 122.872 63.703 123.336 C 63.231 123.792 62.507 124.02 61.531 124.02 L 59.923 124.02 L 59.923 127.512 L 58.831 127.512 L 58.831 119.148 L 61.531 119.148 C 62.475 119.148 63.191 119.376 63.679 119.832 C 64.175 120.288 64.423 120.876 64.423 121.596 Z M 61.531 123.12 C 62.139 123.12 62.587 122.988 62.875 122.724 C 63.163 122.46 63.307 122.084 63.307 121.596 C 63.307 120.564 62.715 120.048 61.531 120.048 L 59.923 120.048 L 59.923 123.12 L 61.531 123.12 Z M 66.873 122.004 C 67.065 121.628 67.337 121.336 67.689 121.128 C 68.049 120.92 68.485 120.816 68.997 120.816 L 68.997 121.944 L 68.709 121.944 C 67.485 121.944 66.873 122.608 66.873 123.936 L 66.873 127.512 L 65.781 127.512 L 65.781 120.936 L 66.873 120.936 L 66.873 122.004 Z M 70.821 119.868 C 70.613 119.868 70.437 119.796 70.293 119.652 C 70.149 119.508 70.077 119.332 70.077 119.124 C 70.077 118.916 70.149 118.74 70.293 118.596 C 70.437 118.452 70.613 118.38 70.821 118.38 C 71.021 118.38 71.189 118.452 71.325 118.596 C 71.469 118.74 71.541 118.916 71.541 119.124 C 71.541 119.332 71.469 119.508 71.325 119.652 C 71.189 119.796 71.021 119.868 70.821 119.868 Z M 71.349 120.936 L 71.349 127.512 L 70.257 127.512 L 70.257 120.936 L 71.349 120.936 Z M 81.118 120.816 C 81.63 120.816 82.086 120.924 82.486 121.14 C 82.886 121.348 83.202 121.664 83.434 122.088 C 83.666 122.512 83.782 123.028 83.782 123.636 L 83.782 127.512 L 82.702 127.512 L 82.702 123.792 C 82.702 123.136 82.538 122.636 82.21 122.292 C 81.89 121.94 81.454 121.764 80.902 121.764 C 80.334 121.764 79.882 121.948 79.546 122.316 C 79.21 122.676 79.042 123.2 79.042 123.888 L 79.042 127.512 L 77.962 127.512 L 77.962 123.792 C 77.962 123.136 77.798 122.636 77.47 122.292 C 77.15 121.94 76.714 121.764 76.162 121.764 C 75.594 121.764 75.142 121.948 74.806 122.316 C 74.47 122.676 74.302 123.2 74.302 123.888 L 74.302 127.512 L 73.21 127.512 L 73.21 120.936 L 74.302 120.936 L 74.302 121.884 C 74.518 121.54 74.806 121.276 75.166 121.092 C 75.534 120.908 75.938 120.816 76.378 120.816 C 76.93 120.816 77.418 120.94 77.842 121.188 C 78.266 121.436 78.582 121.8 78.79 122.28 C 78.974 121.816 79.278 121.456 79.702 121.2 C 80.126 120.944 80.598 120.816 81.118 120.816 Z M 91.574 123.972 C 91.574 124.18 91.562 124.4 91.538 124.632 L 86.282 124.632 C 86.322 125.28 86.542 125.788 86.942 126.156 C 87.35 126.516 87.842 126.696 88.418 126.696 C 88.89 126.696 89.282 126.588 89.594 126.372 C 89.914 126.148 90.138 125.852 90.266 125.484 L 91.442 125.484 C 91.266 126.116 90.914 126.632 90.386 127.032 C 89.858 127.424 89.202 127.62 88.418 127.62 C 87.794 127.62 87.234 127.48 86.738 127.2 C 86.25 126.92 85.866 126.524 85.586 126.012 C 85.306 125.492 85.166 124.892 85.166 124.212 C 85.166 123.532 85.302 122.936 85.574 122.424 C 85.846 121.912 86.226 121.52 86.714 121.248 C 87.21 120.968 87.778 120.828 88.418 120.828 C 89.042 120.828 89.594 120.964 90.074 121.236 C 90.554 121.508 90.922 121.884 91.178 122.364 C 91.442 122.836 91.574 123.372 91.574 123.972 Z M 90.446 123.744 C 90.446 123.328 90.354 122.972 90.17 122.676 C 89.986 122.372 89.734 122.144 89.414 121.992 C 89.102 121.832 88.754 121.752 88.37 121.752 C 87.818 121.752 87.346 121.928 86.954 122.28 C 86.57 122.632 86.35 123.12 86.294 123.744 L 90.446 123.744 Z M 100.426 119.148 L 100.426 125.328 C 100.426 126.016 100.214 126.568 99.79 126.984 C 99.366 127.392 98.806 127.596 98.11 127.596 C 97.406 127.596 96.842 127.388 96.418 126.972 C 95.994 126.548 95.782 125.972 95.782 125.244 L 96.874 125.244 C 96.882 125.652 96.986 125.984 97.186 126.24 C 97.394 126.496 97.702 126.624 98.11 126.624 C 98.518 126.624 98.822 126.504 99.022 126.264 C 99.222 126.016 99.322 125.704 99.322 125.328 L 99.322 119.148 L 100.426 119.148 Z M 105.446 127.62 C 104.829 127.62 104.269 127.48 103.765 127.2 C 103.269 126.92 102.877 126.524 102.589 126.012 C 102.309 125.492 102.169 124.892 102.169 124.212 C 102.169 123.54 102.313 122.948 102.601 122.436 C 102.897 121.916 103.297 121.52 103.801 121.248 C 104.305 120.968 104.869 120.828 105.494 120.828 C 106.118 120.828 106.682 120.968 107.186 121.248 C 107.69 121.52 108.086 121.912 108.374 122.424 C 108.67 122.936 108.818 123.532 108.818 124.212 C 108.818 124.892 108.666 125.492 108.362 126.012 C 108.066 126.524 107.662 126.92 107.15 127.2 C 106.638 127.48 106.07 127.62 105.446 127.62 Z M 105.446 126.66 C 105.838 126.66 106.206 126.568 106.55 126.384 C 106.894 126.2 107.17 125.924 107.378 125.556 C 107.594 125.188 107.702 124.74 107.702 124.212 C 107.702 123.684 107.598 123.236 107.39 122.868 C 107.182 122.5 106.91 122.228 106.574 122.052 C 106.238 121.868 105.874 121.776 105.482 121.776 C 105.082 121.776 104.713 121.868 104.377 122.052 C 104.049 122.228 103.785 122.5 103.585 122.868 C 103.385 123.236 103.285 123.684 103.285 124.212 C 103.285 124.748 103.381 125.2 103.573 125.568 C 103.773 125.936 104.037 126.212 104.365 126.396 C 104.693 126.572 105.054 126.66 105.446 126.66 Z M 111.346 122.16 C 111.57 121.768 111.898 121.448 112.329 121.2 C 112.762 120.952 113.254 120.828 113.806 120.828 C 114.398 120.828 114.93 120.968 115.402 121.248 C 115.874 121.528 116.246 121.924 116.518 122.436 C 116.79 122.94 116.926 123.528 116.926 124.2 C 116.926 124.864 116.79 125.456 116.518 125.976 C 116.246 126.496 115.869 126.9 115.389 127.188 C 114.918 127.476 114.39 127.62 113.806 127.62 C 113.238 127.62 112.738 127.496 112.306 127.248 C 111.882 127 111.562 126.684 111.346 126.3 L 111.346 127.512 L 110.254 127.512 L 110.254 118.632 L 111.346 118.632 L 111.346 122.16 Z M 115.81 124.2 C 115.81 123.704 115.71 123.272 115.51 122.904 C 115.31 122.536 115.038 122.256 114.694 122.064 C 114.358 121.872 113.986 121.776 113.578 121.776 C 113.178 121.776 112.806 121.876 112.462 122.076 C 112.126 122.268 111.854 122.552 111.646 122.928 C 111.446 123.296 111.346 123.724 111.346 124.212 C 111.346 124.708 111.446 125.144 111.646 125.52 C 111.854 125.888 112.126 126.172 112.462 126.372 C 112.806 126.564 113.178 126.66 113.578 126.66 C 113.986 126.66 114.358 126.564 114.694 126.372 C 115.038 126.172 115.31 125.888 115.51 125.52 C 115.71 125.144 115.81 124.704 115.81 124.2 Z M 120.691 127.62 C 120.187 127.62 119.735 127.536 119.335 127.368 C 118.935 127.192 118.619 126.952 118.387 126.648 C 118.155 126.336 118.027 125.98 118.003 125.58 L 119.131 125.58 C 119.163 125.908 119.315 126.176 119.587 126.384 C 119.867 126.592 120.231 126.696 120.679 126.696 C 121.095 126.696 121.423 126.604 121.663 126.42 C 121.903 126.236 122.023 126.004 122.023 125.724 C 122.023 125.436 121.895 125.224 121.639 125.088 C 121.383 124.944 120.987 124.804 120.451 124.668 C 119.963 124.54 119.563 124.412 119.251 124.284 C 118.947 124.148 118.683 123.952 118.459 123.696 C 118.243 123.432 118.135 123.088 118.135 122.664 C 118.135 122.328 118.235 122.02 118.435 121.74 C 118.635 121.46 118.919 121.24 119.287 121.08 C 119.655 120.912 120.075 120.828 120.547 120.828 C 121.275 120.828 121.863 121.012 122.311 121.38 C 122.759 121.748 122.999 122.252 123.031 122.892 L 121.939 122.892 C 121.915 122.548 121.775 122.272 121.519 122.064 C 121.271 121.856 120.935 121.752 120.511 121.752 C 120.119 121.752 119.807 121.836 119.575 122.004 C 119.343 122.172 119.227 122.392 119.227 122.664 C 119.227 122.88 119.295 123.06 119.431 123.204 C 119.575 123.34 119.751 123.452 119.959 123.54 C 120.175 123.62 120.471 123.712 120.847 123.816 C 121.319 123.944 121.703 124.072 121.999 124.2 C 122.295 124.32 122.547 124.504 122.755 124.752 C 122.971 125 123.083 125.324 123.091 125.724 C 123.091 126.084 122.991 126.408 122.791 126.696 C 122.591 126.984 122.307 127.212 121.939 127.38 C 121.579 127.54 121.163 127.62 120.691 127.62 Z" fill="white"/>
</svg>