<svg
    width="257"
    height="212"
    viewBox="0 0 257 212"
    fill="none"
    xmlns="http://www.w3.org/2000/svg"
>
    <g clip-path="url(#clip0_2563_113810)">
        <path
            d="M222.414 42.0442C226.594 42.5356 230.334 42.9778 234.506 43.473L233.446 39.9048C233.272 39.2811 233.515 38.5931 233.993 38.2038L246.124 28.119L243.606 26.9094C242.507 26.4974 242.816 25.8662 243.213 24.3391L245.064 17.437L238.023 18.9603C237.336 19.0661 236.878 18.6201 236.774 18.193L235.864 14.9574L230.292 21.3378C229.501 22.3622 227.901 22.3622 228.399 19.9998L230.781 7.05357L227.593 8.74319C226.69 9.25347 225.8 9.34419 225.295 8.42567L220.81 0.0078125L216.326 8.42567C215.824 9.34419 214.93 9.25347 214.031 8.74319L210.843 7.05357L213.222 19.9998C213.719 22.3622 212.119 22.3622 211.325 21.3378L205.753 14.9574L204.843 18.193C204.735 18.6239 204.288 19.0661 203.601 18.9603L196.553 17.437L198.403 24.3391C198.797 25.8662 199.113 26.4974 198.006 26.9094L195.492 28.119L207.623 38.2038C208.105 38.5931 208.352 39.2773 208.178 39.9048L207.114 43.473C211.29 42.9778 215.026 42.5356 219.206 42.0442L220.128 42.8266L219.939 50.6246H221.685L221.493 42.8266L222.418 42.0442H222.414Z"
            fill="#F4F5F1"
        />
        <path
            d="M24.4734 158.601V127.953C24.4734 105.126 43.352 86.6161 66.6416 86.6161H85.6628V62.625H64.0929C28.6957 62.625 0 90.7551 0 125.455V182.592H85.6628V158.597H24.4734V158.601Z"
            fill="#F4F5F1"
        />
        <path
            d="M97.9062 62.6133V182.584H122.38V146.595H183.573V140.959V122.597V86.6082H159.096V122.597H122.38V86.6082H159.096V62.6133H97.9062Z"
            fill="#F4F5F1"
        />
        <path
            d="M183.572 86.6082V62.6133H257V119.75C257 154.454 228.304 182.584 192.903 182.584H134.617V158.593H190.358C213.644 158.593 232.526 140.086 232.526 117.256V86.6082H183.572Z"
            fill="#F4F5F1"
        />
        <path
            d="M7.81728 211.997C5.43819 211.997 3.5565 211.222 2.17609 209.676C0.795676 208.13 0.105469 206.025 0.105469 203.367C0.105469 200.71 0.795676 198.582 2.17223 197.04C3.54879 195.498 5.42662 194.727 7.80571 194.727C9.71439 194.727 11.33 195.275 12.6564 196.375C13.9829 197.475 14.7348 198.881 14.9121 200.601H11.9585C11.7503 199.614 11.2683 198.824 10.5164 198.234C9.76451 197.645 8.86223 197.35 7.80571 197.35C6.37903 197.35 5.2531 197.887 4.42023 198.964C3.59121 200.041 3.17477 201.504 3.17477 203.36C3.17477 205.216 3.59121 206.682 4.42023 207.76C5.24925 208.837 6.38288 209.377 7.81728 209.377C8.88151 209.377 9.78765 209.105 10.5395 208.561C11.2915 208.017 11.7696 207.287 11.9701 206.365H14.9237C14.7232 208.051 13.9713 209.412 12.668 210.447C11.3647 211.479 9.74909 211.997 7.81728 211.997Z"
            fill="#F4F5F1"
        />
        <path
            d="M23.9805 198.274L21.6785 205.059H26.4559L24.1771 198.274H23.9805ZM28.5728 211.591L27.1539 207.384H20.9767L19.5346 211.591H16.5L22.4535 195.141H25.8236L31.7887 211.591H28.569H28.5728Z"
            fill="#F4F5F1"
        />
        <path
            d="M37.5755 211.587H34.6797V195.137H37.2863L45.5186 206.321H45.7191V195.137H48.5995V211.587H46.0083L37.7721 200.391H37.5755V211.587Z"
            fill="#F4F5F1"
        />
        <path
            d="M58.9883 198.274L56.6863 205.059H61.4638L59.1849 198.274H58.9883ZM63.5807 211.591L62.1617 207.384H55.9845L54.5424 211.591H51.5078L57.4613 195.141H60.8314L66.7965 211.591H63.5768H63.5807Z"
            fill="#F4F5F1"
        />
        <path
            d="M72.6874 197.681V209.047H75.5832C77.2605 209.047 78.5484 208.552 79.4584 207.565C80.3645 206.579 80.8195 205.169 80.8195 203.335C80.8195 201.502 80.3606 200.149 79.4429 199.162C78.5252 198.176 77.2412 197.681 75.587 197.681H72.6913H72.6874ZM69.6875 195.137H75.9803C78.4751 195.137 80.4185 195.847 81.7989 197.276C83.1832 198.701 83.8734 200.705 83.8734 203.29C83.8734 205.875 83.187 207.97 81.8105 209.417C80.4339 210.865 78.4905 211.591 75.9803 211.591H69.6875V195.141V195.137Z"
            fill="#F4F5F1"
        />
        <path
            d="M92.7461 198.274L90.4441 205.059H95.2216L92.9427 198.274H92.7461ZM97.3385 211.591L95.9195 207.384H89.7423L88.3002 211.591H85.2656L91.2191 195.141H94.5892L100.554 211.591H97.3346H97.3385Z"
            fill="#F4F5F1"
        />
        <path
            d="M115.207 197.601V203.759H118.172C119.252 203.759 120.085 203.494 120.678 202.961C121.272 202.428 121.569 201.676 121.569 200.705C121.569 199.733 121.276 198.936 120.69 198.403C120.104 197.87 119.267 197.605 118.184 197.605H115.207V197.601ZM112.207 195.137H118.974C120.648 195.137 122.005 195.651 123.05 196.675C124.091 197.7 124.615 199.041 124.615 200.701C124.615 202.36 124.079 203.649 123.004 204.67C121.928 205.686 120.544 206.197 118.847 206.197H115.207V211.591H112.207V195.141V195.137Z"
            fill="#F4F5F1"
        />
        <path
            d="M130.922 197.579V203.086H134.388C135.341 203.086 136.077 202.848 136.602 202.368C137.126 201.888 137.388 201.211 137.388 200.338C137.388 199.465 137.114 198.803 136.567 198.316C136.019 197.824 135.271 197.582 134.319 197.582H130.922V197.579ZM130.922 205.422V211.591H127.922V195.141H134.735C136.497 195.141 137.893 195.602 138.923 196.524C139.956 197.446 140.469 198.698 140.469 200.281C140.469 201.377 140.191 202.345 139.632 203.184C139.073 204.023 138.298 204.621 137.307 204.968L140.97 211.591H137.539L134.246 205.422H130.918H130.922Z"
            fill="#F4F5F1"
        />
        <path
            d="M147.094 195.137H144.094V211.587H147.094V195.137Z"
            fill="#F4F5F1"
        />
        <path
            d="M168.563 211.587H165.771V200.017H165.609L160.971 210.952H158.827L154.188 200.017H154.026V211.587H151.234V195.137H154.747L159.794 207.119H160.003L165.054 195.137H168.563V211.587Z"
            fill="#F4F5F1"
        />
        <path
            d="M183.569 209.047V211.587H172.707V195.137H183.569V197.681H175.707V202.046H183.137V204.439H175.707V209.047H183.569Z"
            fill="#F4F5F1"
        />
        <path
            d="M194.891 207.108H197.821C197.829 207.784 198.052 208.329 198.496 208.737C198.935 209.149 199.514 209.353 200.227 209.353C201.018 209.353 201.623 209.122 202.043 208.665C202.464 208.204 202.672 207.535 202.672 206.654V195.141H205.672V206.681C205.672 208.367 205.194 209.678 204.241 210.608C203.289 211.538 201.958 212.007 200.262 212.007C198.565 212.007 197.351 211.561 196.367 210.672C195.38 209.784 194.891 208.597 194.891 207.115"
            fill="#F4F5F1"
        />
        <path
            d="M217.064 197.338C215.568 197.338 214.38 197.883 213.497 198.967C212.618 200.056 212.179 201.515 212.179 203.356C212.179 205.197 212.614 206.671 213.486 207.756C214.357 208.841 215.549 209.385 217.064 209.385C218.579 209.385 219.732 208.841 220.604 207.748C221.475 206.656 221.911 205.193 221.911 203.352C221.911 201.511 221.475 200.049 220.604 198.964C219.732 197.875 218.549 197.335 217.064 197.335M217.064 194.723C219.497 194.723 221.429 195.498 222.848 197.047C224.271 198.597 224.98 200.699 224.98 203.352C224.98 206.006 224.271 208.107 222.852 209.661C221.433 211.214 219.501 211.993 217.06 211.993C214.619 211.993 212.661 211.218 211.238 209.668C209.815 208.119 209.102 206.013 209.102 203.352C209.102 200.691 209.819 198.597 211.249 197.047C212.68 195.498 214.616 194.723 217.06 194.723"
            fill="#F4F5F1"
        />
        <path
            d="M231.414 209.251H234.904C236.01 209.251 236.855 209.032 237.425 208.597C238 208.159 238.285 207.523 238.285 206.688C238.285 205.853 237.988 205.244 237.394 204.817C236.801 204.39 235.933 204.178 234.784 204.178H231.414V209.251ZM231.414 197.473V202.054H234.31C235.374 202.054 236.18 201.857 236.735 201.468C237.29 201.079 237.568 200.508 237.568 199.763C237.568 199.019 237.314 198.478 236.812 198.074C236.307 197.669 235.601 197.469 234.695 197.469H231.414V197.473ZM235.59 211.587H228.414V195.137H235.428C237.017 195.137 238.266 195.503 239.172 196.237C240.082 196.97 240.533 197.972 240.533 199.242C240.533 200.107 240.248 200.882 239.673 201.555C239.099 202.232 238.389 202.636 237.545 202.765V202.969C238.678 203.075 239.596 203.49 240.302 204.216C241.007 204.942 241.358 205.841 241.358 206.911C241.358 208.355 240.846 209.497 239.82 210.332C238.794 211.167 237.383 211.587 235.594 211.587"
            fill="#F4F5F1"
        />
        <path
            d="M243.844 207.121H246.774C246.867 207.858 247.26 208.444 247.95 208.882C248.64 209.321 249.516 209.536 250.576 209.536C251.567 209.536 252.385 209.313 253.025 208.867C253.665 208.421 253.985 207.854 253.985 207.162C253.985 206.569 253.742 206.089 253.256 205.715C252.774 205.344 251.991 205.034 250.912 204.792L248.737 204.301C247.218 203.965 246.088 203.42 245.359 202.664C244.626 201.908 244.26 200.918 244.26 199.693C244.26 198.196 244.831 196.994 245.976 196.083C247.121 195.176 248.629 194.723 250.507 194.723C252.265 194.723 253.723 195.172 254.879 196.068C256.036 196.964 256.649 198.121 256.719 199.534H253.846C253.746 198.813 253.395 198.238 252.789 197.815C252.184 197.387 251.421 197.176 250.499 197.176C249.531 197.176 248.752 197.387 248.17 197.807C247.584 198.23 247.291 198.79 247.291 199.489C247.291 200.045 247.518 200.495 247.977 200.842C248.436 201.186 249.184 201.477 250.221 201.715L252.153 202.15C253.85 202.521 255.08 203.076 255.847 203.813C256.611 204.55 256.992 205.545 256.992 206.799C256.992 208.402 256.402 209.672 255.219 210.602C254.035 211.532 252.431 212.001 250.399 212.001C248.475 212.001 246.925 211.558 245.741 210.678C244.557 209.797 243.929 208.61 243.851 207.121"
            fill="#F4F5F1"
        />
    </g>
    <defs>
        <clipPath id="clip0_2563_113810">
            <rect
                width="257"
                height="212"
                fill="white"
            />
        </clipPath>
    </defs>
</svg>