<?xml version="1.0" encoding="utf-8"?>
<svg width="131" height="204" viewBox="0 0 131 204" fill="none" xmlns="http://www.w3.org/2000/svg" xmlns:bx="https://boxy-svg.com">
  <path d="M0 0H131V138.5C131 174.675 101.675 204 65.5 204C29.3253 204 0 174.675 0 138.5V0Z" fill="#C71F2C"/>
  <g clip-path="url(#clip0_2563_113853)">
    <path d="M84.0057 75.828C84.8294 75.9253 85.5665 76.0129 86.3887 76.111L86.1797 75.4041C86.1455 75.2806 86.1934 75.1443 86.2876 75.0671L88.6782 73.0692L88.182 72.8296C87.9655 72.7479 88.0263 72.6229 88.1045 72.3203L88.4693 70.9529L87.0817 71.2547C86.9465 71.2757 86.856 71.1873 86.8355 71.1027L86.6562 70.4617L85.5582 71.7258C85.4024 71.9287 85.087 71.9287 85.1851 71.4607L85.6547 68.8959L85.0262 69.2306C84.8484 69.3317 84.6729 69.3497 84.5733 69.1677L83.6896 67.5L82.8059 69.1677C82.7071 69.3497 82.5308 69.3317 82.3537 69.2306L81.7253 68.8959L82.1941 71.4607C82.2922 71.9287 81.9768 71.9287 81.8203 71.7258L80.7222 70.4617L80.5429 71.1027C80.5216 71.1881 80.4335 71.2757 80.2982 71.2547L78.9092 70.9529L79.2739 72.3203C79.3514 72.6229 79.4137 72.7479 79.1956 72.8296L78.7002 73.0692L81.0908 75.0671C81.1858 75.1443 81.2344 75.2798 81.2002 75.4041L80.9905 76.111C81.8134 76.0129 82.5498 75.9253 83.3735 75.828L83.5551 75.983L83.5179 77.5279H83.8621L83.8241 75.983L84.0065 75.828H84.0057Z" fill="white"/>
    <path d="M44.9997 98.9203V92.8486C44.9997 88.3263 48.7201 84.6592 53.3098 84.6592H57.0584V79.9062H52.8076C45.8318 79.9062 40.1768 85.4792 40.1768 92.3536V103.673H57.0584V98.9195H44.9997V98.9203Z" fill="white"/>
    <path d="M59.4697 79.9062V103.674H64.2927V96.5442H76.3521V95.4277V91.7898V84.66H71.5283V91.7898H64.2927V84.66H71.5283V79.9062H59.4697Z" fill="white"/>
    <path d="M76.3516 84.66V79.9062H90.8221V91.2259C90.8221 98.1011 85.167 103.674 78.1905 103.674H66.7041V98.9211H77.689C82.2779 98.9211 85.9991 95.2547 85.9991 90.7316V84.66H76.3516Z" fill="white"/>
    <path d="M41.7161 109.5C41.2472 109.5 40.8764 109.346 40.6043 109.04C40.3323 108.734 40.1963 108.316 40.1963 107.79C40.1963 107.264 40.3323 106.842 40.6036 106.536C40.8749 106.231 41.2449 106.078 41.7138 106.078C42.0899 106.078 42.4083 106.187 42.6697 106.405C42.9311 106.623 43.0793 106.901 43.1142 107.242H42.5322C42.4911 107.046 42.3962 106.89 42.248 106.773C42.0998 106.656 41.922 106.598 41.7138 106.598C41.4326 106.598 41.2107 106.704 41.0466 106.918C40.8832 107.131 40.8012 107.421 40.8012 107.789C40.8012 108.156 40.8832 108.447 41.0466 108.66C41.21 108.874 41.4334 108.981 41.7161 108.981C41.9258 108.981 42.1044 108.927 42.2525 108.819C42.4007 108.711 42.4949 108.567 42.5345 108.384H43.1165C43.077 108.718 42.9288 108.987 42.672 109.193C42.4152 109.397 42.0968 109.5 41.7161 109.5Z" fill="white"/>
    <path d="M44.9048 106.781L44.4512 108.125H45.3927L44.9436 106.781H44.9048ZM45.8099 109.419L45.5302 108.586H44.3129L44.0287 109.419H43.4307L44.6039 106.16H45.2681L46.4436 109.419H45.8091H45.8099Z" fill="white"/>
    <path d="M47.5795 109.419H47.0088V106.16H47.5225L49.1448 108.376H49.1843V106.16H49.752V109.419H49.2413L47.6182 107.201H47.5795V109.419Z" fill="white"/>
    <path d="M51.8033 106.781L51.3496 108.125H52.2911L51.842 106.781H51.8033ZM52.7083 109.419L52.4287 108.586H51.2113L50.9271 109.419H50.3291L51.5024 106.16H52.1665L53.342 109.419H52.7075H52.7083Z" fill="white"/>
    <path d="M54.5023 106.664V108.916H55.073C55.4035 108.916 55.6573 108.818 55.8367 108.622C56.0153 108.427 56.1049 108.148 56.1049 107.784C56.1049 107.421 56.0145 107.153 55.8336 106.958C55.6528 106.762 55.3997 106.664 55.0738 106.664H54.5031H54.5023ZM53.9111 106.16H55.1513C55.6429 106.16 56.0259 106.301 56.2979 106.584C56.5707 106.866 56.7067 107.263 56.7067 107.775C56.7067 108.288 56.5715 108.703 56.3002 108.989C56.0289 109.276 55.6459 109.42 55.1513 109.42H53.9111V106.161V106.16Z" fill="white"/>
    <path d="M58.4556 106.781L58.002 108.125H58.9435L58.4944 106.781H58.4556ZM59.3606 109.419L59.081 108.586H57.8637L57.5795 109.419H56.9814L58.1547 106.16H58.8188L59.9944 109.419H59.3599H59.3606Z" fill="white"/>
    <path d="M62.8812 106.648V107.868H63.4656C63.6783 107.868 63.8425 107.816 63.9595 107.71C64.0765 107.605 64.135 107.456 64.135 107.263C64.135 107.071 64.0773 106.913 63.9618 106.807C63.8463 106.702 63.6814 106.649 63.4679 106.649H62.8812V106.648ZM62.29 106.16H63.6236C63.9534 106.16 64.2209 106.262 64.4268 106.465C64.632 106.668 64.7353 106.934 64.7353 107.262C64.7353 107.591 64.6297 107.847 64.4177 108.049C64.2057 108.25 63.9329 108.351 63.5986 108.351H62.8812V109.42H62.29V106.161V106.16Z" fill="white"/>
    <path d="M65.9789 106.643V107.734H66.662C66.8497 107.734 66.9949 107.687 67.0982 107.592C67.2015 107.497 67.2532 107.363 67.2532 107.19C67.2532 107.017 67.1993 106.886 67.0914 106.789C66.9835 106.692 66.836 106.644 66.6483 106.644H65.9789V106.643ZM65.9789 108.197V109.419H65.3877V106.16H66.7304C67.0777 106.16 67.3528 106.252 67.5556 106.434C67.7593 106.617 67.8604 106.865 67.8604 107.179C67.8604 107.396 67.8056 107.587 67.6955 107.754C67.5853 107.92 67.4325 108.038 67.2373 108.107L67.9591 109.419H67.2828L66.6339 108.197H65.9781H65.9789Z" fill="white"/>
    <path d="M69.1625 106.16H68.5713V109.419H69.1625V106.16Z" fill="white"/>
    <path d="M73.3964 109.419H72.8462V107.127H72.8143L71.9002 109.293H71.4777L70.5635 107.127H70.5316V109.419H69.9814V106.16H70.6737L71.6684 108.534H71.7094L72.7049 106.16H73.3964V109.419Z" fill="white"/>
    <path d="M76.3525 108.916V109.419H74.2119V106.16H76.3525V106.664H74.8031V107.529H76.2674V108.003H74.8031V108.916H76.3525Z" fill="white"/>
    <path d="M78.583 108.531H79.1605C79.162 108.665 79.2061 108.773 79.2935 108.854C79.3801 108.935 79.4941 108.976 79.6347 108.976C79.7905 108.976 79.9098 108.93 79.9926 108.84C80.0754 108.748 80.1165 108.616 80.1165 108.441V106.16H80.7076V108.446C80.7076 108.78 80.6134 109.04 80.4257 109.224C80.238 109.409 79.9759 109.502 79.6415 109.502C79.3072 109.502 79.0678 109.413 78.874 109.237C78.6795 109.061 78.583 108.826 78.583 108.533" fill="white"/>
    <path d="M82.953 106.596C82.6581 106.596 82.4241 106.704 82.2501 106.919C82.0768 107.135 81.9902 107.424 81.9902 107.788C81.9902 108.153 82.076 108.445 82.2478 108.66C82.4195 108.875 82.6543 108.983 82.953 108.983C83.2516 108.983 83.4788 108.875 83.6505 108.659C83.8223 108.442 83.9081 108.152 83.9081 107.788C83.9081 107.423 83.8223 107.133 83.6505 106.918C83.4788 106.703 83.2455 106.596 82.953 106.596M82.953 106.078C83.4324 106.078 83.8131 106.232 84.0928 106.539C84.3732 106.846 84.513 107.262 84.513 107.788C84.513 108.313 84.3732 108.73 84.0935 109.038C83.8139 109.345 83.4332 109.5 82.9522 109.5C82.4712 109.5 82.0852 109.346 81.8048 109.039C81.5244 108.732 81.3838 108.315 81.3838 107.788C81.3838 107.261 81.5251 106.846 81.807 106.539C82.089 106.232 82.4704 106.078 82.9522 106.078" fill="white"/>
    <path d="M85.7797 108.956H86.4674C86.6855 108.956 86.8519 108.913 86.9643 108.827C87.0775 108.74 87.1338 108.614 87.1338 108.449C87.1338 108.283 87.0753 108.163 86.9582 108.078C86.8412 107.993 86.6703 107.951 86.4438 107.951H85.7797V108.956ZM85.7797 106.623V107.531H86.3503C86.5601 107.531 86.7189 107.492 86.8283 107.414C86.9377 107.337 86.9924 107.224 86.9924 107.077C86.9924 106.929 86.9423 106.822 86.8435 106.742C86.744 106.662 86.6049 106.622 86.4263 106.622H85.7797V106.623ZM86.6026 109.419H85.1885V106.16H86.5707C86.8838 106.16 87.13 106.233 87.3086 106.378C87.4879 106.523 87.5768 106.722 87.5768 106.973C87.5768 107.145 87.5206 107.298 87.4073 107.432C87.2941 107.566 87.1543 107.646 86.9879 107.671V107.712C87.2113 107.733 87.3921 107.815 87.5312 107.959C87.6703 108.103 87.7394 108.281 87.7394 108.493C87.7394 108.779 87.6383 109.005 87.4362 109.171C87.2341 109.336 86.956 109.419 86.6034 109.419" fill="white"/>
    <path d="M88.2314 108.534H88.809C88.8272 108.68 88.9047 108.796 89.0407 108.883C89.1767 108.97 89.3492 109.013 89.5582 109.013C89.7535 109.013 89.9146 108.969 90.0407 108.88C90.1669 108.792 90.2299 108.68 90.2299 108.543C90.2299 108.425 90.1821 108.33 90.0863 108.256C89.9913 108.182 89.8371 108.121 89.6243 108.073L89.1957 107.976C88.8963 107.909 88.6737 107.801 88.5301 107.651C88.3857 107.502 88.3135 107.305 88.3135 107.063C88.3135 106.766 88.426 106.528 88.6517 106.348C88.8773 106.168 89.1745 106.078 89.5445 106.078C89.891 106.078 90.1783 106.167 90.4062 106.345C90.6342 106.522 90.755 106.751 90.7687 107.031H90.2026C90.1828 106.888 90.1137 106.775 89.9944 106.691C89.8751 106.606 89.7246 106.564 89.543 106.564C89.3523 106.564 89.1988 106.606 89.084 106.689C88.9685 106.773 88.9108 106.884 88.9108 107.022C88.9108 107.133 88.9556 107.222 89.046 107.291C89.1365 107.359 89.2839 107.416 89.4883 107.463L89.869 107.55C90.2033 107.623 90.4457 107.733 90.597 107.879C90.7474 108.025 90.8226 108.222 90.8226 108.471C90.8226 108.788 90.7064 109.04 90.4731 109.224C90.2398 109.408 89.9237 109.501 89.5232 109.501C89.1441 109.501 88.8386 109.414 88.6053 109.239C88.372 109.065 88.2482 108.829 88.233 108.534" fill="white"/>
  </g>
  <defs>
    <clipPath id="clip0_2563_113853">
      <rect width="50.6471" height="42" fill="white" transform="translate(40.1768 67.5)"/>
    </clipPath>
    <bx:export>
      <bx:file format="svg" href="#object-0"/>
    </bx:export>
  </defs>
  <path d="M 5.841 116.324 C 5.841 115.508 6.025 114.776 6.393 114.128 C 6.761 113.472 7.261 112.96 7.893 112.592 C 8.533 112.224 9.241 112.04 10.017 112.04 C 10.929 112.04 11.725 112.26 12.405 112.7 C 13.085 113.14 13.581 113.764 13.893 114.572 L 12.585 114.572 C 12.353 114.068 12.017 113.68 11.577 113.408 C 11.145 113.136 10.625 113 10.017 113 C 9.433 113 8.909 113.136 8.445 113.408 C 7.981 113.68 7.617 114.068 7.353 114.572 C 7.089 115.068 6.957 115.652 6.957 116.324 C 6.957 116.988 7.089 117.572 7.353 118.076 C 7.617 118.572 7.981 118.956 8.445 119.228 C 8.909 119.5 9.433 119.636 10.017 119.636 C 10.625 119.636 11.145 119.504 11.577 119.24 C 12.017 118.968 12.353 118.58 12.585 118.076 L 13.893 118.076 C 13.581 118.876 13.085 119.496 12.405 119.936 C 11.725 120.368 10.929 120.584 10.017 120.584 C 9.241 120.584 8.533 120.404 7.893 120.044 C 7.261 119.676 6.761 119.168 6.393 118.52 C 6.025 117.872 5.841 117.14 5.841 116.324 Z M 15.111 117.2 C 15.111 116.528 15.247 115.94 15.519 115.436 C 15.791 114.924 16.163 114.528 16.635 114.248 C 17.115 113.968 17.647 113.828 18.231 113.828 C 18.807 113.828 19.307 113.952 19.731 114.2 C 20.155 114.448 20.471 114.76 20.679 115.136 L 20.679 113.936 L 21.783 113.936 L 21.783 120.512 L 20.679 120.512 L 20.679 119.288 C 20.463 119.672 20.139 119.992 19.707 120.248 C 19.283 120.496 18.787 120.62 18.219 120.62 C 17.635 120.62 17.107 120.476 16.635 120.188 C 16.163 119.9 15.791 119.496 15.519 118.976 C 15.247 118.456 15.111 117.864 15.111 117.2 Z M 20.679 117.212 C 20.679 116.716 20.579 116.284 20.379 115.916 C 20.179 115.548 19.907 115.268 19.563 115.076 C 19.227 114.876 18.855 114.776 18.447 114.776 C 18.039 114.776 17.667 114.872 17.331 115.064 C 16.995 115.256 16.727 115.536 16.527 115.904 C 16.327 116.272 16.227 116.704 16.227 117.2 C 16.227 117.704 16.327 118.144 16.527 118.52 C 16.727 118.888 16.995 119.172 17.331 119.372 C 17.667 119.564 18.039 119.66 18.447 119.66 C 18.855 119.66 19.227 119.564 19.563 119.372 C 19.907 119.172 20.179 118.888 20.379 118.52 C 20.579 118.144 20.679 117.708 20.679 117.212 Z M 26.832 113.816 C 27.632 113.816 28.28 114.06 28.776 114.548 C 29.272 115.028 29.52 115.724 29.52 116.636 L 29.52 120.512 L 28.44 120.512 L 28.44 116.792 C 28.44 116.136 28.276 115.636 27.948 115.292 C 27.62 114.94 27.172 114.764 26.604 114.764 C 26.028 114.764 25.568 114.944 25.224 115.304 C 24.888 115.664 24.72 116.188 24.72 116.876 L 24.72 120.512 L 23.628 120.512 L 23.628 113.936 L 24.72 113.936 L 24.72 114.872 C 24.936 114.536 25.228 114.276 25.596 114.092 C 25.972 113.908 26.384 113.816 26.832 113.816 Z M 30.896 117.2 C 30.896 116.528 31.032 115.94 31.304 115.436 C 31.576 114.924 31.948 114.528 32.42 114.248 C 32.9 113.968 33.432 113.828 34.016 113.828 C 34.592 113.828 35.092 113.952 35.516 114.2 C 35.94 114.448 36.256 114.76 36.464 115.136 L 36.464 113.936 L 37.568 113.936 L 37.568 120.512 L 36.464 120.512 L 36.464 119.288 C 36.248 119.672 35.924 119.992 35.492 120.248 C 35.068 120.496 34.572 120.62 34.004 120.62 C 33.42 120.62 32.892 120.476 32.42 120.188 C 31.948 119.9 31.576 119.496 31.304 118.976 C 31.032 118.456 30.896 117.864 30.896 117.2 Z M 36.464 117.212 C 36.464 116.716 36.364 116.284 36.164 115.916 C 35.964 115.548 35.692 115.268 35.348 115.076 C 35.012 114.876 34.64 114.776 34.232 114.776 C 33.824 114.776 33.452 114.872 33.116 115.064 C 32.78 115.256 32.512 115.536 32.312 115.904 C 32.112 116.272 32.012 116.704 32.012 117.2 C 32.012 117.704 32.112 118.144 32.312 118.52 C 32.512 118.888 32.78 119.172 33.116 119.372 C 33.452 119.564 33.824 119.66 34.232 119.66 C 34.64 119.66 35.012 119.564 35.348 119.372 C 35.692 119.172 35.964 118.888 36.164 118.52 C 36.364 118.144 36.464 117.708 36.464 117.212 Z M 39.005 117.2 C 39.005 116.528 39.141 115.94 39.413 115.436 C 39.685 114.924 40.057 114.528 40.529 114.248 C 41.009 113.968 41.545 113.828 42.137 113.828 C 42.649 113.828 43.125 113.948 43.565 114.188 C 44.005 114.42 44.341 114.728 44.573 115.112 L 44.573 111.632 L 45.677 111.632 L 45.677 120.512 L 44.573 120.512 L 44.573 119.276 C 44.357 119.668 44.037 119.992 43.613 120.248 C 43.189 120.496 42.693 120.62 42.125 120.62 C 41.541 120.62 41.009 120.476 40.529 120.188 C 40.057 119.9 39.685 119.496 39.413 118.976 C 39.141 118.456 39.005 117.864 39.005 117.2 Z M 44.573 117.212 C 44.573 116.716 44.473 116.284 44.273 115.916 C 44.073 115.548 43.801 115.268 43.457 115.076 C 43.121 114.876 42.749 114.776 42.341 114.776 C 41.933 114.776 41.561 114.872 41.225 115.064 C 40.889 115.256 40.621 115.536 40.421 115.904 C 40.221 116.272 40.121 116.704 40.121 117.2 C 40.121 117.704 40.221 118.144 40.421 118.52 C 40.621 118.888 40.889 119.172 41.225 119.372 C 41.561 119.564 41.933 119.66 42.341 119.66 C 42.749 119.66 43.121 119.564 43.457 119.372 C 43.801 119.172 44.073 118.888 44.273 118.52 C 44.473 118.144 44.573 117.708 44.573 117.212 Z M 47.115 117.2 C 47.115 116.528 47.251 115.94 47.523 115.436 C 47.795 114.924 48.167 114.528 48.639 114.248 C 49.119 113.968 49.651 113.828 50.235 113.828 C 50.811 113.828 51.311 113.952 51.735 114.2 C 52.159 114.448 52.475 114.76 52.683 115.136 L 52.683 113.936 L 53.787 113.936 L 53.787 120.512 L 52.683 120.512 L 52.683 119.288 C 52.467 119.672 52.143 119.992 51.711 120.248 C 51.287 120.496 50.791 120.62 50.223 120.62 C 49.639 120.62 49.111 120.476 48.639 120.188 C 48.167 119.9 47.795 119.496 47.523 118.976 C 47.251 118.456 47.115 117.864 47.115 117.2 Z M 52.683 117.212 C 52.683 116.716 52.583 116.284 52.383 115.916 C 52.183 115.548 51.911 115.268 51.567 115.076 C 51.231 114.876 50.859 114.776 50.451 114.776 C 50.043 114.776 49.671 114.872 49.335 115.064 C 48.999 115.256 48.731 115.536 48.531 115.904 C 48.331 116.272 48.231 116.704 48.231 117.2 C 48.231 117.704 48.331 118.144 48.531 118.52 C 48.731 118.888 48.999 119.172 49.335 119.372 C 49.671 119.564 50.043 119.66 50.451 119.66 C 50.859 119.66 51.231 119.564 51.567 119.372 C 51.911 119.172 52.183 118.888 52.383 118.52 C 52.583 118.144 52.683 117.708 52.683 117.212 Z M 64.423 114.596 C 64.423 115.292 64.183 115.872 63.703 116.336 C 63.231 116.792 62.507 117.02 61.531 117.02 L 59.923 117.02 L 59.923 120.512 L 58.831 120.512 L 58.831 112.148 L 61.531 112.148 C 62.475 112.148 63.191 112.376 63.679 112.832 C 64.175 113.288 64.423 113.876 64.423 114.596 Z M 61.531 116.12 C 62.139 116.12 62.587 115.988 62.875 115.724 C 63.163 115.46 63.307 115.084 63.307 114.596 C 63.307 113.564 62.715 113.048 61.531 113.048 L 59.923 113.048 L 59.923 116.12 L 61.531 116.12 Z M 66.873 115.004 C 67.065 114.628 67.337 114.336 67.689 114.128 C 68.049 113.92 68.485 113.816 68.997 113.816 L 68.997 114.944 L 68.709 114.944 C 67.485 114.944 66.873 115.608 66.873 116.936 L 66.873 120.512 L 65.781 120.512 L 65.781 113.936 L 66.873 113.936 L 66.873 115.004 Z M 70.821 112.868 C 70.613 112.868 70.437 112.796 70.293 112.652 C 70.149 112.508 70.077 112.332 70.077 112.124 C 70.077 111.916 70.149 111.74 70.293 111.596 C 70.437 111.452 70.613 111.38 70.821 111.38 C 71.021 111.38 71.189 111.452 71.325 111.596 C 71.469 111.74 71.541 111.916 71.541 112.124 C 71.541 112.332 71.469 112.508 71.325 112.652 C 71.189 112.796 71.021 112.868 70.821 112.868 Z M 71.349 113.936 L 71.349 120.512 L 70.257 120.512 L 70.257 113.936 L 71.349 113.936 Z M 81.118 113.816 C 81.63 113.816 82.086 113.924 82.486 114.14 C 82.886 114.348 83.202 114.664 83.434 115.088 C 83.666 115.512 83.782 116.028 83.782 116.636 L 83.782 120.512 L 82.702 120.512 L 82.702 116.792 C 82.702 116.136 82.538 115.636 82.21 115.292 C 81.89 114.94 81.454 114.764 80.902 114.764 C 80.334 114.764 79.882 114.948 79.546 115.316 C 79.21 115.676 79.042 116.2 79.042 116.888 L 79.042 120.512 L 77.962 120.512 L 77.962 116.792 C 77.962 116.136 77.798 115.636 77.47 115.292 C 77.15 114.94 76.714 114.764 76.162 114.764 C 75.594 114.764 75.142 114.948 74.806 115.316 C 74.47 115.676 74.302 116.2 74.302 116.888 L 74.302 120.512 L 73.21 120.512 L 73.21 113.936 L 74.302 113.936 L 74.302 114.884 C 74.518 114.54 74.806 114.276 75.166 114.092 C 75.534 113.908 75.938 113.816 76.378 113.816 C 76.93 113.816 77.418 113.94 77.842 114.188 C 78.266 114.436 78.582 114.8 78.79 115.28 C 78.974 114.816 79.278 114.456 79.702 114.2 C 80.126 113.944 80.598 113.816 81.118 113.816 Z M 91.574 116.972 C 91.574 117.18 91.562 117.4 91.538 117.632 L 86.282 117.632 C 86.322 118.28 86.542 118.788 86.942 119.156 C 87.35 119.516 87.842 119.696 88.418 119.696 C 88.89 119.696 89.282 119.588 89.594 119.372 C 89.914 119.148 90.138 118.852 90.266 118.484 L 91.442 118.484 C 91.266 119.116 90.914 119.632 90.386 120.032 C 89.858 120.424 89.202 120.62 88.418 120.62 C 87.794 120.62 87.234 120.48 86.738 120.2 C 86.25 119.92 85.866 119.524 85.586 119.012 C 85.306 118.492 85.166 117.892 85.166 117.212 C 85.166 116.532 85.302 115.936 85.574 115.424 C 85.846 114.912 86.226 114.52 86.714 114.248 C 87.21 113.968 87.778 113.828 88.418 113.828 C 89.042 113.828 89.594 113.964 90.074 114.236 C 90.554 114.508 90.922 114.884 91.178 115.364 C 91.442 115.836 91.574 116.372 91.574 116.972 Z M 90.446 116.744 C 90.446 116.328 90.354 115.972 90.17 115.676 C 89.986 115.372 89.734 115.144 89.414 114.992 C 89.102 114.832 88.754 114.752 88.37 114.752 C 87.818 114.752 87.346 114.928 86.954 115.28 C 86.57 115.632 86.35 116.12 86.294 116.744 L 90.446 116.744 Z M 100.426 112.148 L 100.426 118.328 C 100.426 119.016 100.214 119.568 99.79 119.984 C 99.366 120.392 98.806 120.596 98.11 120.596 C 97.406 120.596 96.842 120.388 96.418 119.972 C 95.994 119.548 95.782 118.972 95.782 118.244 L 96.874 118.244 C 96.882 118.652 96.986 118.984 97.186 119.24 C 97.394 119.496 97.702 119.624 98.11 119.624 C 98.518 119.624 98.822 119.504 99.022 119.264 C 99.222 119.016 99.322 118.704 99.322 118.328 L 99.322 112.148 L 100.426 112.148 Z M 105.446 120.62 C 104.829 120.62 104.269 120.48 103.765 120.2 C 103.269 119.92 102.877 119.524 102.589 119.012 C 102.309 118.492 102.169 117.892 102.169 117.212 C 102.169 116.54 102.313 115.948 102.601 115.436 C 102.897 114.916 103.297 114.52 103.801 114.248 C 104.305 113.968 104.869 113.828 105.494 113.828 C 106.118 113.828 106.682 113.968 107.186 114.248 C 107.69 114.52 108.086 114.912 108.374 115.424 C 108.67 115.936 108.818 116.532 108.818 117.212 C 108.818 117.892 108.666 118.492 108.362 119.012 C 108.066 119.524 107.662 119.92 107.15 120.2 C 106.638 120.48 106.07 120.62 105.446 120.62 Z M 105.446 119.66 C 105.838 119.66 106.206 119.568 106.55 119.384 C 106.894 119.2 107.17 118.924 107.378 118.556 C 107.594 118.188 107.702 117.74 107.702 117.212 C 107.702 116.684 107.598 116.236 107.39 115.868 C 107.182 115.5 106.91 115.228 106.574 115.052 C 106.238 114.868 105.874 114.776 105.482 114.776 C 105.082 114.776 104.713 114.868 104.377 115.052 C 104.049 115.228 103.785 115.5 103.585 115.868 C 103.385 116.236 103.285 116.684 103.285 117.212 C 103.285 117.748 103.381 118.2 103.573 118.568 C 103.773 118.936 104.037 119.212 104.365 119.396 C 104.693 119.572 105.054 119.66 105.446 119.66 Z M 111.346 115.16 C 111.57 114.768 111.898 114.448 112.329 114.2 C 112.762 113.952 113.254 113.828 113.806 113.828 C 114.398 113.828 114.93 113.968 115.402 114.248 C 115.874 114.528 116.246 114.924 116.518 115.436 C 116.79 115.94 116.926 116.528 116.926 117.2 C 116.926 117.864 116.79 118.456 116.518 118.976 C 116.246 119.496 115.869 119.9 115.389 120.188 C 114.918 120.476 114.39 120.62 113.806 120.62 C 113.238 120.62 112.738 120.496 112.306 120.248 C 111.882 120 111.562 119.684 111.346 119.3 L 111.346 120.512 L 110.254 120.512 L 110.254 111.632 L 111.346 111.632 L 111.346 115.16 Z M 115.81 117.2 C 115.81 116.704 115.71 116.272 115.51 115.904 C 115.31 115.536 115.038 115.256 114.694 115.064 C 114.358 114.872 113.986 114.776 113.578 114.776 C 113.178 114.776 112.806 114.876 112.462 115.076 C 112.126 115.268 111.854 115.552 111.646 115.928 C 111.446 116.296 111.346 116.724 111.346 117.212 C 111.346 117.708 111.446 118.144 111.646 118.52 C 111.854 118.888 112.126 119.172 112.462 119.372 C 112.806 119.564 113.178 119.66 113.578 119.66 C 113.986 119.66 114.358 119.564 114.694 119.372 C 115.038 119.172 115.31 118.888 115.51 118.52 C 115.71 118.144 115.81 117.704 115.81 117.2 Z M 120.691 120.62 C 120.187 120.62 119.735 120.536 119.335 120.368 C 118.935 120.192 118.619 119.952 118.387 119.648 C 118.155 119.336 118.027 118.98 118.003 118.58 L 119.131 118.58 C 119.163 118.908 119.315 119.176 119.587 119.384 C 119.867 119.592 120.231 119.696 120.679 119.696 C 121.095 119.696 121.423 119.604 121.663 119.42 C 121.903 119.236 122.023 119.004 122.023 118.724 C 122.023 118.436 121.895 118.224 121.639 118.088 C 121.383 117.944 120.987 117.804 120.451 117.668 C 119.963 117.54 119.563 117.412 119.251 117.284 C 118.947 117.148 118.683 116.952 118.459 116.696 C 118.243 116.432 118.135 116.088 118.135 115.664 C 118.135 115.328 118.235 115.02 118.435 114.74 C 118.635 114.46 118.919 114.24 119.287 114.08 C 119.655 113.912 120.075 113.828 120.547 113.828 C 121.275 113.828 121.863 114.012 122.311 114.38 C 122.759 114.748 122.999 115.252 123.031 115.892 L 121.939 115.892 C 121.915 115.548 121.775 115.272 121.519 115.064 C 121.271 114.856 120.935 114.752 120.511 114.752 C 120.119 114.752 119.807 114.836 119.575 115.004 C 119.343 115.172 119.227 115.392 119.227 115.664 C 119.227 115.88 119.295 116.06 119.431 116.204 C 119.575 116.34 119.751 116.452 119.959 116.54 C 120.175 116.62 120.471 116.712 120.847 116.816 C 121.319 116.944 121.703 117.072 121.999 117.2 C 122.295 117.32 122.547 117.504 122.755 117.752 C 122.971 118 123.083 118.324 123.091 118.724 C 123.091 119.084 122.991 119.408 122.791 119.696 C 122.591 119.984 122.307 120.212 121.939 120.38 C 121.579 120.54 121.163 120.62 120.691 120.62 Z" fill="white" id="object-0"/>
  <rect x="37.751" y="104.783" width="56.626" height="7.502" style="fill: rgb(199, 31, 44); fill-rule: nonzero; paint-order: stroke;"/>
</svg>