<svg width="29" height="24" viewBox="0 0 29 24" fill="none" xmlns="http://www.w3.org/2000/svg">
<g id="Layer_1" clip-path="url(#clip0_2563_114001)">
<g id="Group">
<path id="Vector" d="M25.0473 4.75884C25.518 4.81446 25.9392 4.86453 26.4091 4.92059L26.2896 4.51664C26.2701 4.44603 26.2975 4.36815 26.3513 4.32407L27.7174 3.1824L27.4338 3.04547C27.3101 2.99882 27.3448 2.92736 27.3895 2.75448L27.598 1.97311L26.8051 2.14556C26.7278 2.15754 26.6761 2.10705 26.6644 2.0587L26.5619 1.6924L25.9345 2.41472C25.8454 2.53069 25.6652 2.53069 25.7213 2.26324L25.9896 0.797632L25.6305 0.98891C25.5289 1.04668 25.4286 1.05695 25.3717 0.952965L24.8667 0L24.3617 0.952965C24.3053 1.05695 24.2045 1.04668 24.1034 0.98891L23.7443 0.797632L24.0122 2.26324C24.0682 2.53069 23.888 2.53069 23.7985 2.41472L23.1711 1.6924L23.0686 2.0587C23.0564 2.10748 23.0061 2.15754 22.9288 2.14556L22.135 1.97311L22.3435 2.75448C22.3878 2.92736 22.4234 2.99882 22.2987 3.04547L22.0156 3.1824L23.3817 4.32407C23.436 4.36815 23.4637 4.4456 23.4442 4.51664L23.3244 4.92059C23.7946 4.86453 24.2154 4.81446 24.6861 4.75884L24.7899 4.84741L24.7686 5.7302H24.9653L24.9436 4.84741L25.0478 4.75884H25.0473Z" fill="white"/>
<path id="Vector_2" d="M2.75599 17.955V14.4855C2.75599 11.9013 4.88193 9.80582 7.50462 9.80582H9.64663V7.08984H7.2176C3.23146 7.08984 0 10.2744 0 14.2026V20.671H9.64663V17.9546H2.75599V17.955Z" fill="white"/>
</g>
<path id="Vector_3" d="M11.0234 7.08984V20.6714H13.7794V16.5972H20.6705V15.9592V13.8804V9.80624H17.9141V13.8804H13.7794V9.80624H17.9141V7.08984H11.0234Z" fill="white"/>
<path id="Vector_4" d="M20.673 9.80624V7.08984H28.9419V13.5582C28.9419 17.4869 25.7104 20.6714 21.7238 20.6714H15.1602V17.9554H21.4372C24.0595 17.9554 26.1859 15.8604 26.1859 13.2758V9.80624H20.673Z" fill="white"/>
<path id="Vector_5" d="M0.880158 23.9981C0.612245 23.9981 0.400345 23.9104 0.244895 23.7354C0.0894441 23.5604 0.0117188 23.322 0.0117188 23.0212C0.0117188 22.7204 0.0894441 22.4794 0.24446 22.3049C0.399477 22.1303 0.610942 22.043 0.878855 22.043C1.09379 22.043 1.27573 22.105 1.4251 22.2295C1.57448 22.3541 1.65915 22.5132 1.67912 22.7079H1.34651C1.32306 22.5963 1.26878 22.5068 1.18411 22.4401C1.09944 22.3733 0.997832 22.3399 0.878855 22.3399C0.718194 22.3399 0.591402 22.4007 0.497611 22.5227C0.404253 22.6446 0.357358 22.8102 0.357358 23.0203C0.357358 23.2304 0.404253 23.3965 0.497611 23.5184C0.590968 23.6404 0.718628 23.7016 0.880158 23.7016C1 23.7016 1.10204 23.6708 1.18672 23.6091C1.27139 23.5475 1.32523 23.4649 1.34781 23.3605H1.68042C1.65785 23.5514 1.57317 23.7054 1.42641 23.8227C1.27964 23.9395 1.0977 23.9981 0.880158 23.9981Z" fill="white"/>
<path id="Vector_6" d="M2.70176 22.4446L2.44253 23.2127H2.98053L2.72391 22.4446H2.70176ZM3.21892 23.9521L3.05912 23.4759H2.3635L2.20111 23.9521H1.85938L2.52981 22.0898H2.90932L3.58106 23.9521H3.21848H3.21892Z" fill="white"/>
<path id="Vector_7" d="M4.23235 23.9521H3.90625V22.0898H4.19978L5.12684 23.356H5.14942V22.0898H5.47378V23.9521H5.18199L4.25449 22.6846H4.23235V23.9521Z" fill="white"/>
<path id="Vector_8" d="M6.64317 22.4446L6.38394 23.2127H6.92194L6.66531 22.4446H6.64317ZM7.16032 23.9521L7.00053 23.4759H6.30491L6.14251 23.9521H5.80078L6.47122 22.0898H6.85072L7.52246 23.9521H7.15989H7.16032Z" fill="white"/>
<path id="Vector_9" d="M8.18548 22.3778V23.6646H8.51158C8.70046 23.6646 8.84549 23.6085 8.94797 23.4968C9.05001 23.3851 9.10125 23.2255 9.10125 23.018C9.10125 22.8105 9.04958 22.6573 8.94623 22.5456C8.84289 22.4339 8.69829 22.3778 8.51201 22.3778H8.18591H8.18548ZM7.84766 22.0898H8.5563C8.83724 22.0898 9.05609 22.1703 9.21154 22.332C9.36743 22.4934 9.44515 22.7202 9.44515 23.0129C9.44515 23.3055 9.36786 23.5426 9.21284 23.7065C9.05783 23.8704 8.83898 23.9526 8.5563 23.9526H7.84766V22.0903V22.0898Z" fill="white"/>
<path id="Vector_10" d="M10.4439 22.4446L10.1847 23.2127H10.7227L10.4661 22.4446H10.4439ZM10.9611 23.9521L10.8013 23.4759H10.1057L9.94329 23.9521H9.60156L10.272 22.0898H10.6515L11.3232 23.9521H10.9607H10.9611Z" fill="white"/>
<path id="Vector_11" d="M12.9745 22.3688V23.0659H13.3085C13.43 23.0659 13.5238 23.036 13.5907 22.9756C13.6576 22.9153 13.691 22.8301 13.691 22.7202C13.691 22.6102 13.658 22.5199 13.592 22.4596C13.526 22.3992 13.4318 22.3693 13.3098 22.3693H12.9745V22.3688ZM12.6367 22.0898H13.3988C13.5872 22.0898 13.7401 22.148 13.8577 22.264C13.975 22.38 14.034 22.5319 14.034 22.7197C14.034 22.9076 13.9737 23.0535 13.8525 23.169C13.7314 23.2842 13.5755 23.3419 13.3844 23.3419H12.9745V23.9526H12.6367V22.0903V22.0898Z" fill="white"/>
<path id="Vector_12" d="M14.7441 22.3658V22.9893H15.1344C15.2417 22.9893 15.3246 22.9624 15.3837 22.908C15.4427 22.8537 15.4723 22.7771 15.4723 22.6782C15.4723 22.5794 15.4414 22.5045 15.3798 22.4493C15.3181 22.3937 15.2339 22.3663 15.1266 22.3663H14.7441V22.3658ZM14.7441 23.2538V23.9521H14.4062V22.0898H15.1735C15.372 22.0898 15.5291 22.142 15.6451 22.2465C15.7614 22.3509 15.8192 22.4925 15.8192 22.6718C15.8192 22.7959 15.7879 22.9054 15.725 23.0004C15.662 23.0954 15.5747 23.1631 15.4631 23.2024L15.8756 23.9521H15.4892L15.1184 23.2538H14.7436H14.7441Z" fill="white"/>
<path id="Vector_13" d="M16.5644 22.0898H16.2266V23.9521H16.5644V22.0898Z" fill="white"/>
<path id="Vector_14" d="M18.9826 23.9521H18.6683V22.6423H18.65L18.1277 23.8802H17.8862L17.3639 22.6423H17.3456V23.9521H17.0312V22.0898H17.4268L17.9952 23.4463H18.0187L18.5875 22.0898H18.9826V23.9521Z" fill="white"/>
<path id="Vector_15" d="M20.6724 23.6646V23.9521H19.4492V22.0898H20.6724V22.3778H19.787V22.8721H20.6238V23.1429H19.787V23.6646H20.6724Z" fill="white"/>
<path id="Vector_16" d="M21.9453 23.4446H22.2753C22.2762 23.5212 22.3014 23.5828 22.3513 23.6291C22.4008 23.6757 22.4659 23.6988 22.5463 23.6988C22.6353 23.6988 22.7035 23.6727 22.7508 23.6209C22.7981 23.5687 22.8216 23.493 22.8216 23.3933V22.0898H23.1594V23.3963C23.1594 23.5871 23.1055 23.7356 22.9983 23.8409C22.891 23.9461 22.7412 23.9992 22.5502 23.9992C22.3591 23.9992 22.2223 23.9487 22.1116 23.8481C22.0005 23.7476 21.9453 23.6132 21.9453 23.4455" fill="white"/>
<path id="Vector_17" d="M24.4435 22.3391C24.2751 22.3391 24.1413 22.4007 24.0419 22.5235C23.9429 22.6468 23.8934 22.8119 23.8934 23.0203C23.8934 23.2287 23.9424 23.3956 24.0406 23.5184C24.1387 23.6412 24.2729 23.7028 24.4435 23.7028C24.6142 23.7028 24.744 23.6412 24.8422 23.5176C24.9403 23.3939 24.9894 23.2283 24.9894 23.0199C24.9894 22.8115 24.9403 22.6459 24.8422 22.5231C24.744 22.3998 24.6107 22.3387 24.4435 22.3387M24.4435 22.043C24.7175 22.043 24.9351 22.1307 25.0949 22.3061C25.2551 22.4816 25.335 22.7195 25.335 23.0199C25.335 23.3203 25.2551 23.5582 25.0953 23.7341C24.9355 23.91 24.718 23.9981 24.4431 23.9981C24.1682 23.9981 23.9477 23.9104 23.7874 23.7349C23.6272 23.5595 23.5469 23.3211 23.5469 23.0199C23.5469 22.7186 23.6276 22.4816 23.7887 22.3061C23.9498 22.1307 24.1678 22.043 24.4431 22.043" fill="white"/>
<path id="Vector_18" d="M26.0605 23.6877H26.4534C26.5781 23.6877 26.6732 23.6629 26.7374 23.6136C26.8021 23.564 26.8343 23.4921 26.8343 23.3975C26.8343 23.303 26.8008 23.2341 26.734 23.1857C26.6671 23.1374 26.5694 23.1134 26.44 23.1134H26.0605V23.6877ZM26.0605 22.3543V22.8729H26.3866C26.5064 22.8729 26.5972 22.8507 26.6597 22.8066C26.7222 22.7625 26.7535 22.6979 26.7535 22.6136C26.7535 22.5293 26.7248 22.4681 26.6684 22.4223C26.6115 22.3765 26.532 22.3539 26.43 22.3539H26.0605V22.3543ZM26.5307 23.9521H25.7227V22.0898H26.5125C26.6914 22.0898 26.8321 22.1314 26.9341 22.2144C27.0366 22.2974 27.0874 22.4108 27.0874 22.5546C27.0874 22.6526 27.0553 22.7403 26.9906 22.8164C26.9259 22.893 26.846 22.9388 26.7509 22.9534V22.9765C26.8785 22.9885 26.9819 23.0355 27.0614 23.1177C27.1408 23.1999 27.1803 23.3017 27.1803 23.4228C27.1803 23.5863 27.1226 23.7155 27.0071 23.8101C26.8916 23.9046 26.7327 23.9521 26.5312 23.9521" fill="white"/>
<path id="Vector_19" d="M27.4609 23.4465H27.7909C27.8014 23.53 27.8457 23.5963 27.9234 23.6459C28.0011 23.6956 28.0997 23.72 28.2191 23.72C28.3307 23.72 28.4227 23.6947 28.4948 23.6442C28.5669 23.5937 28.6029 23.5295 28.6029 23.4512C28.6029 23.3841 28.5756 23.3297 28.5209 23.2873C28.4666 23.2454 28.3784 23.2103 28.2569 23.1829L28.012 23.1273C27.8409 23.0892 27.7137 23.0276 27.6316 22.942C27.5491 22.8564 27.5078 22.7443 27.5078 22.6057C27.5078 22.4362 27.5721 22.3001 27.7011 22.197C27.83 22.0943 27.9998 22.043 28.2113 22.043C28.4093 22.043 28.5734 22.0939 28.7037 22.1953C28.8339 22.2967 28.903 22.4277 28.9108 22.5877H28.5873C28.576 22.506 28.5365 22.4409 28.4683 22.393C28.4002 22.3446 28.3142 22.3207 28.2104 22.3207C28.1014 22.3207 28.0137 22.3446 27.9481 22.3921C27.8821 22.4401 27.8491 22.5034 27.8491 22.5826C27.8491 22.6455 27.8747 22.6964 27.9264 22.7358C27.9781 22.7747 28.0623 22.8077 28.1791 22.8346L28.3967 22.8838C28.5877 22.9258 28.7263 22.9887 28.8127 23.0721C28.8986 23.1555 28.9416 23.2681 28.9416 23.4102C28.9416 23.5916 28.8752 23.7354 28.7419 23.8406C28.6086 23.9459 28.4279 23.999 28.1991 23.999C27.9824 23.999 27.8079 23.9489 27.6746 23.8492C27.5413 23.7495 27.4705 23.6151 27.4618 23.4465" fill="white"/>
</g>
<defs>
<clipPath id="clip0_2563_114001">
<rect width="28.9412" height="24" fill="white"/>
</clipPath>
</defs>
</svg>
