<svg
    width="131"
    height="204"
    viewBox="0 0 131 204"
    fill="none"
    xmlns="http://www.w3.org/2000/svg"
>
    <path
        d="M0 0H131V138.5C131 174.675 101.675 204 65.5 204C29.3253 204 0 174.675 0 138.5V0Z"
        fill="#C71F2C"
    />
    <g clip-path="url(#clip0_2563_113853)">
        <path
            d="M84.0057 75.828C84.8294 75.9253 85.5665 76.0129 86.3887 76.111L86.1797 75.4041C86.1455 75.2806 86.1934 75.1443 86.2876 75.0671L88.6782 73.0692L88.182 72.8296C87.9655 72.7479 88.0263 72.6229 88.1045 72.3203L88.4693 70.9529L87.0817 71.2547C86.9465 71.2757 86.856 71.1873 86.8355 71.1027L86.6562 70.4617L85.5582 71.7258C85.4024 71.9287 85.087 71.9287 85.1851 71.4607L85.6547 68.8959L85.0262 69.2306C84.8484 69.3317 84.6729 69.3497 84.5733 69.1677L83.6896 67.5L82.8059 69.1677C82.7071 69.3497 82.5308 69.3317 82.3537 69.2306L81.7253 68.8959L82.1941 71.4607C82.2922 71.9287 81.9768 71.9287 81.8203 71.7258L80.7222 70.4617L80.5429 71.1027C80.5216 71.1881 80.4335 71.2757 80.2982 71.2547L78.9092 70.9529L79.2739 72.3203C79.3514 72.6229 79.4137 72.7479 79.1956 72.8296L78.7002 73.0692L81.0908 75.0671C81.1858 75.1443 81.2344 75.2798 81.2002 75.4041L80.9905 76.111C81.8134 76.0129 82.5498 75.9253 83.3735 75.828L83.5551 75.983L83.5179 77.5279H83.8621L83.8241 75.983L84.0065 75.828H84.0057Z"
            fill="white"
        />
        <path
            d="M44.9997 98.9203V92.8486C44.9997 88.3263 48.7201 84.6592 53.3098 84.6592H57.0584V79.9062H52.8076C45.8318 79.9062 40.1768 85.4792 40.1768 92.3536V103.673H57.0584V98.9195H44.9997V98.9203Z"
            fill="white"
        />
        <path
            d="M59.4697 79.9062V103.674H64.2927V96.5442H76.3521V95.4277V91.7898V84.66H71.5283V91.7898H64.2927V84.66H71.5283V79.9062H59.4697Z"
            fill="white"
        />
        <path
            d="M76.3516 84.66V79.9062H90.8221V91.2259C90.8221 98.1011 85.167 103.674 78.1905 103.674H66.7041V98.9211H77.689C82.2779 98.9211 85.9991 95.2547 85.9991 90.7316V84.66H76.3516Z"
            fill="white"
        />
        <path
            d="M41.7161 109.5C41.2472 109.5 40.8764 109.346 40.6043 109.04C40.3323 108.734 40.1963 108.316 40.1963 107.79C40.1963 107.264 40.3323 106.842 40.6036 106.536C40.8749 106.231 41.2449 106.078 41.7138 106.078C42.0899 106.078 42.4083 106.187 42.6697 106.405C42.9311 106.623 43.0793 106.901 43.1142 107.242H42.5322C42.4911 107.046 42.3962 106.89 42.248 106.773C42.0998 106.656 41.922 106.598 41.7138 106.598C41.4326 106.598 41.2107 106.704 41.0466 106.918C40.8832 107.131 40.8012 107.421 40.8012 107.789C40.8012 108.156 40.8832 108.447 41.0466 108.66C41.21 108.874 41.4334 108.981 41.7161 108.981C41.9258 108.981 42.1044 108.927 42.2525 108.819C42.4007 108.711 42.4949 108.567 42.5345 108.384H43.1165C43.077 108.718 42.9288 108.987 42.672 109.193C42.4152 109.397 42.0968 109.5 41.7161 109.5Z"
            fill="white"
        />
        <path
            d="M44.9048 106.781L44.4512 108.125H45.3927L44.9436 106.781H44.9048ZM45.8099 109.419L45.5302 108.586H44.3129L44.0287 109.419H43.4307L44.6039 106.16H45.2681L46.4436 109.419H45.8091H45.8099Z"
            fill="white"
        />
        <path
            d="M47.5795 109.419H47.0088V106.16H47.5225L49.1448 108.376H49.1843V106.16H49.752V109.419H49.2413L47.6182 107.201H47.5795V109.419Z"
            fill="white"
        />
        <path
            d="M51.8033 106.781L51.3496 108.125H52.2911L51.842 106.781H51.8033ZM52.7083 109.419L52.4287 108.586H51.2113L50.9271 109.419H50.3291L51.5024 106.16H52.1665L53.342 109.419H52.7075H52.7083Z"
            fill="white"
        />
        <path
            d="M54.5023 106.664V108.916H55.073C55.4035 108.916 55.6573 108.818 55.8367 108.622C56.0153 108.427 56.1049 108.148 56.1049 107.784C56.1049 107.421 56.0145 107.153 55.8336 106.958C55.6528 106.762 55.3997 106.664 55.0738 106.664H54.5031H54.5023ZM53.9111 106.16H55.1513C55.6429 106.16 56.0259 106.301 56.2979 106.584C56.5707 106.866 56.7067 107.263 56.7067 107.775C56.7067 108.288 56.5715 108.703 56.3002 108.989C56.0289 109.276 55.6459 109.42 55.1513 109.42H53.9111V106.161V106.16Z"
            fill="white"
        />
        <path
            d="M58.4556 106.781L58.002 108.125H58.9435L58.4944 106.781H58.4556ZM59.3606 109.419L59.081 108.586H57.8637L57.5795 109.419H56.9814L58.1547 106.16H58.8188L59.9944 109.419H59.3599H59.3606Z"
            fill="white"
        />
        <path
            d="M62.8812 106.648V107.868H63.4656C63.6783 107.868 63.8425 107.816 63.9595 107.71C64.0765 107.605 64.135 107.456 64.135 107.263C64.135 107.071 64.0773 106.913 63.9618 106.807C63.8463 106.702 63.6814 106.649 63.4679 106.649H62.8812V106.648ZM62.29 106.16H63.6236C63.9534 106.16 64.2209 106.262 64.4268 106.465C64.632 106.668 64.7353 106.934 64.7353 107.262C64.7353 107.591 64.6297 107.847 64.4177 108.049C64.2057 108.25 63.9329 108.351 63.5986 108.351H62.8812V109.42H62.29V106.161V106.16Z"
            fill="white"
        />
        <path
            d="M65.9789 106.643V107.734H66.662C66.8497 107.734 66.9949 107.687 67.0982 107.592C67.2015 107.497 67.2532 107.363 67.2532 107.19C67.2532 107.017 67.1993 106.886 67.0914 106.789C66.9835 106.692 66.836 106.644 66.6483 106.644H65.9789V106.643ZM65.9789 108.197V109.419H65.3877V106.16H66.7304C67.0777 106.16 67.3528 106.252 67.5556 106.434C67.7593 106.617 67.8604 106.865 67.8604 107.179C67.8604 107.396 67.8056 107.587 67.6955 107.754C67.5853 107.92 67.4325 108.038 67.2373 108.107L67.9591 109.419H67.2828L66.6339 108.197H65.9781H65.9789Z"
            fill="white"
        />
        <path
            d="M69.1625 106.16H68.5713V109.419H69.1625V106.16Z"
            fill="white"
        />
        <path
            d="M73.3964 109.419H72.8462V107.127H72.8143L71.9002 109.293H71.4777L70.5635 107.127H70.5316V109.419H69.9814V106.16H70.6737L71.6684 108.534H71.7094L72.7049 106.16H73.3964V109.419Z"
            fill="white"
        />
        <path
            d="M76.3525 108.916V109.419H74.2119V106.16H76.3525V106.664H74.8031V107.529H76.2674V108.003H74.8031V108.916H76.3525Z"
            fill="white"
        />
        <path
            d="M78.583 108.531H79.1605C79.162 108.665 79.2061 108.773 79.2935 108.854C79.3801 108.935 79.4941 108.976 79.6347 108.976C79.7905 108.976 79.9098 108.93 79.9926 108.84C80.0754 108.748 80.1165 108.616 80.1165 108.441V106.16H80.7076V108.446C80.7076 108.78 80.6134 109.04 80.4257 109.224C80.238 109.409 79.9759 109.502 79.6415 109.502C79.3072 109.502 79.0678 109.413 78.874 109.237C78.6795 109.061 78.583 108.826 78.583 108.533"
            fill="white"
        />
        <path
            d="M82.953 106.596C82.6581 106.596 82.4241 106.704 82.2501 106.919C82.0768 107.135 81.9902 107.424 81.9902 107.788C81.9902 108.153 82.076 108.445 82.2478 108.66C82.4195 108.875 82.6543 108.983 82.953 108.983C83.2516 108.983 83.4788 108.875 83.6505 108.659C83.8223 108.442 83.9081 108.152 83.9081 107.788C83.9081 107.423 83.8223 107.133 83.6505 106.918C83.4788 106.703 83.2455 106.596 82.953 106.596M82.953 106.078C83.4324 106.078 83.8131 106.232 84.0928 106.539C84.3732 106.846 84.513 107.262 84.513 107.788C84.513 108.313 84.3732 108.73 84.0935 109.038C83.8139 109.345 83.4332 109.5 82.9522 109.5C82.4712 109.5 82.0852 109.346 81.8048 109.039C81.5244 108.732 81.3838 108.315 81.3838 107.788C81.3838 107.261 81.5251 106.846 81.807 106.539C82.089 106.232 82.4704 106.078 82.9522 106.078"
            fill="white"
        />
        <path
            d="M85.7797 108.956H86.4674C86.6855 108.956 86.8519 108.913 86.9643 108.827C87.0775 108.74 87.1338 108.614 87.1338 108.449C87.1338 108.283 87.0753 108.163 86.9582 108.078C86.8412 107.993 86.6703 107.951 86.4438 107.951H85.7797V108.956ZM85.7797 106.623V107.531H86.3503C86.5601 107.531 86.7189 107.492 86.8283 107.414C86.9377 107.337 86.9924 107.224 86.9924 107.077C86.9924 106.929 86.9423 106.822 86.8435 106.742C86.744 106.662 86.6049 106.622 86.4263 106.622H85.7797V106.623ZM86.6026 109.419H85.1885V106.16H86.5707C86.8838 106.16 87.13 106.233 87.3086 106.378C87.4879 106.523 87.5768 106.722 87.5768 106.973C87.5768 107.145 87.5206 107.298 87.4073 107.432C87.2941 107.566 87.1543 107.646 86.9879 107.671V107.712C87.2113 107.733 87.3921 107.815 87.5312 107.959C87.6703 108.103 87.7394 108.281 87.7394 108.493C87.7394 108.779 87.6383 109.005 87.4362 109.171C87.2341 109.336 86.956 109.419 86.6034 109.419"
            fill="white"
        />
        <path
            d="M88.2314 108.534H88.809C88.8272 108.68 88.9047 108.796 89.0407 108.883C89.1767 108.97 89.3492 109.013 89.5582 109.013C89.7535 109.013 89.9146 108.969 90.0407 108.88C90.1669 108.792 90.2299 108.68 90.2299 108.543C90.2299 108.425 90.1821 108.33 90.0863 108.256C89.9913 108.182 89.8371 108.121 89.6243 108.073L89.1957 107.976C88.8963 107.909 88.6737 107.801 88.5301 107.651C88.3857 107.502 88.3135 107.305 88.3135 107.063C88.3135 106.766 88.426 106.528 88.6517 106.348C88.8773 106.168 89.1745 106.078 89.5445 106.078C89.891 106.078 90.1783 106.167 90.4062 106.345C90.6342 106.522 90.755 106.751 90.7687 107.031H90.2026C90.1828 106.888 90.1137 106.775 89.9944 106.691C89.8751 106.606 89.7246 106.564 89.543 106.564C89.3523 106.564 89.1988 106.606 89.084 106.689C88.9685 106.773 88.9108 106.884 88.9108 107.022C88.9108 107.133 88.9556 107.222 89.046 107.291C89.1365 107.359 89.2839 107.416 89.4883 107.463L89.869 107.55C90.2033 107.623 90.4457 107.733 90.597 107.879C90.7474 108.025 90.8226 108.222 90.8226 108.471C90.8226 108.788 90.7064 109.04 90.4731 109.224C90.2398 109.408 89.9237 109.501 89.5232 109.501C89.1441 109.501 88.8386 109.414 88.6053 109.239C88.372 109.065 88.2482 108.829 88.233 108.534"
            fill="white"
        />
    </g>
    <path
        d="M10.5453 123.312C10.5453 122.496 10.7293 121.764 11.0973 121.116C11.4653 120.46 11.9653 119.948 12.5973 119.58C13.2373 119.212 13.9453 119.028 14.7213 119.028C15.6333 119.028 16.4293 119.248 17.1093 119.688C17.7893 120.128 18.2853 120.752 18.5973 121.56H17.2893C17.0573 121.056 16.7213 120.668 16.2813 120.396C15.8493 120.124 15.3293 119.988 14.7213 119.988C14.1373 119.988 13.6133 120.124 13.1493 120.396C12.6853 120.668 12.3213 121.056 12.0573 121.56C11.7933 122.056 11.6613 122.64 11.6613 123.312C11.6613 123.976 11.7933 124.56 12.0573 125.064C12.3213 125.56 12.6853 125.944 13.1493 126.216C13.6133 126.488 14.1373 126.624 14.7213 126.624C15.3293 126.624 15.8493 126.492 16.2813 126.228C16.7213 125.956 17.0573 125.568 17.2893 125.064H18.5973C18.2853 125.864 17.7893 126.484 17.1093 126.924C16.4293 127.356 15.6333 127.572 14.7213 127.572C13.9453 127.572 13.2373 127.392 12.5973 127.032C11.9653 126.664 11.4653 126.156 11.0973 125.508C10.7293 124.86 10.5453 124.128 10.5453 123.312ZM19.8148 124.188C19.8148 123.516 19.9508 122.928 20.2228 122.424C20.4948 121.912 20.8668 121.516 21.3388 121.236C21.8188 120.956 22.3508 120.816 22.9348 120.816C23.5108 120.816 24.0108 120.94 24.4348 121.188C24.8588 121.436 25.1748 121.748 25.3828 122.124V120.924H26.4868V127.5H25.3828V126.276C25.1668 126.66 24.8428 126.98 24.4108 127.236C23.9868 127.484 23.4908 127.608 22.9228 127.608C22.3388 127.608 21.8108 127.464 21.3388 127.176C20.8668 126.888 20.4948 126.484 20.2228 125.964C19.9508 125.444 19.8148 124.852 19.8148 124.188ZM25.3828 124.2C25.3828 123.704 25.2828 123.272 25.0828 122.904C24.8828 122.536 24.6108 122.256 24.2668 122.064C23.9308 121.864 23.5588 121.764 23.1508 121.764C22.7428 121.764 22.3708 121.86 22.0348 122.052C21.6988 122.244 21.4308 122.524 21.2308 122.892C21.0308 123.26 20.9308 123.692 20.9308 124.188C20.9308 124.692 21.0308 125.132 21.2308 125.508C21.4308 125.876 21.6988 126.16 22.0348 126.36C22.3708 126.552 22.7428 126.648 23.1508 126.648C23.5588 126.648 23.9308 126.552 24.2668 126.36C24.6108 126.16 24.8828 125.876 25.0828 125.508C25.2828 125.132 25.3828 124.696 25.3828 124.2ZM31.5362 120.804C32.3362 120.804 32.9842 121.048 33.4802 121.536C33.9762 122.016 34.2242 122.712 34.2242 123.624V127.5H33.1442V123.78C33.1442 123.124 32.9802 122.624 32.6522 122.28C32.3242 121.928 31.8762 121.752 31.3082 121.752C30.7322 121.752 30.2722 121.932 29.9282 122.292C29.5922 122.652 29.4242 123.176 29.4242 123.864V127.5H28.3322V120.924H29.4242V121.86C29.6402 121.524 29.9322 121.264 30.3002 121.08C30.6762 120.896 31.0882 120.804 31.5362 120.804ZM35.6 124.188C35.6 123.516 35.736 122.928 36.008 122.424C36.28 121.912 36.652 121.516 37.124 121.236C37.604 120.956 38.136 120.816 38.72 120.816C39.296 120.816 39.796 120.94 40.22 121.188C40.644 121.436 40.96 121.748 41.168 122.124V120.924H42.272V127.5H41.168V126.276C40.952 126.66 40.628 126.98 40.196 127.236C39.772 127.484 39.276 127.608 38.708 127.608C38.124 127.608 37.596 127.464 37.124 127.176C36.652 126.888 36.28 126.484 36.008 125.964C35.736 125.444 35.6 124.852 35.6 124.188ZM41.168 124.2C41.168 123.704 41.068 123.272 40.868 122.904C40.668 122.536 40.396 122.256 40.052 122.064C39.716 121.864 39.344 121.764 38.936 121.764C38.528 121.764 38.156 121.86 37.82 122.052C37.484 122.244 37.216 122.524 37.016 122.892C36.816 123.26 36.716 123.692 36.716 124.188C36.716 124.692 36.816 125.132 37.016 125.508C37.216 125.876 37.484 126.16 37.82 126.36C38.156 126.552 38.528 126.648 38.936 126.648C39.344 126.648 39.716 126.552 40.052 126.36C40.396 126.16 40.668 125.876 40.868 125.508C41.068 125.132 41.168 124.696 41.168 124.2ZM43.7094 124.188C43.7094 123.516 43.8454 122.928 44.1174 122.424C44.3894 121.912 44.7614 121.516 45.2334 121.236C45.7134 120.956 46.2494 120.816 46.8414 120.816C47.3534 120.816 47.8294 120.936 48.2694 121.176C48.7094 121.408 49.0454 121.716 49.2774 122.1V118.62H50.3814V127.5H49.2774V126.264C49.0614 126.656 48.7414 126.98 48.3174 127.236C47.8934 127.484 47.3974 127.608 46.8294 127.608C46.2454 127.608 45.7134 127.464 45.2334 127.176C44.7614 126.888 44.3894 126.484 44.1174 125.964C43.8454 125.444 43.7094 124.852 43.7094 124.188ZM49.2774 124.2C49.2774 123.704 49.1774 123.272 48.9774 122.904C48.7774 122.536 48.5054 122.256 48.1614 122.064C47.8254 121.864 47.4534 121.764 47.0454 121.764C46.6374 121.764 46.2654 121.86 45.9294 122.052C45.5934 122.244 45.3254 122.524 45.1254 122.892C44.9254 123.26 44.8254 123.692 44.8254 124.188C44.8254 124.692 44.9254 125.132 45.1254 125.508C45.3254 125.876 45.5934 126.16 45.9294 126.36C46.2654 126.552 46.6374 126.648 47.0454 126.648C47.4534 126.648 47.8254 126.552 48.1614 126.36C48.5054 126.16 48.7774 125.876 48.9774 125.508C49.1774 125.132 49.2774 124.696 49.2774 124.2ZM51.8187 124.188C51.8187 123.516 51.9547 122.928 52.2267 122.424C52.4987 121.912 52.8707 121.516 53.3427 121.236C53.8227 120.956 54.3547 120.816 54.9387 120.816C55.5147 120.816 56.0147 120.94 56.4387 121.188C56.8627 121.436 57.1787 121.748 57.3867 122.124V120.924H58.4907V127.5H57.3867V126.276C57.1707 126.66 56.8467 126.98 56.4147 127.236C55.9907 127.484 55.4947 127.608 54.9267 127.608C54.3427 127.608 53.8147 127.464 53.3427 127.176C52.8707 126.888 52.4987 126.484 52.2267 125.964C51.9547 125.444 51.8187 124.852 51.8187 124.188ZM57.3867 124.2C57.3867 123.704 57.2867 123.272 57.0867 122.904C56.8867 122.536 56.6147 122.256 56.2707 122.064C55.9347 121.864 55.5627 121.764 55.1547 121.764C54.7467 121.764 54.3747 121.86 54.0387 122.052C53.7027 122.244 53.4347 122.524 53.2347 122.892C53.0347 123.26 52.9347 123.692 52.9347 124.188C52.9347 124.692 53.0347 125.132 53.2347 125.508C53.4347 125.876 53.7027 126.16 54.0387 126.36C54.3747 126.552 54.7467 126.648 55.1547 126.648C55.5627 126.648 55.9347 126.552 56.2707 126.36C56.6147 126.16 56.8867 125.876 57.0867 125.508C57.2867 125.132 57.3867 124.696 57.3867 124.2ZM69.1273 121.584C69.1273 122.28 68.8873 122.86 68.4073 123.324C67.9353 123.78 67.2113 124.008 66.2353 124.008H64.6273V127.5H63.5353V119.136H66.2353C67.1793 119.136 67.8953 119.364 68.3833 119.82C68.8793 120.276 69.1273 120.864 69.1273 121.584ZM66.2353 123.108C66.8433 123.108 67.2913 122.976 67.5793 122.712C67.8673 122.448 68.0113 122.072 68.0113 121.584C68.0113 120.552 67.4193 120.036 66.2353 120.036H64.6273V123.108H66.2353ZM71.5765 121.992C71.7685 121.616 72.0405 121.324 72.3925 121.116C72.7525 120.908 73.1885 120.804 73.7005 120.804V121.932H73.4125C72.1885 121.932 71.5765 122.596 71.5765 123.924V127.5H70.4845V120.924H71.5765V121.992ZM75.5251 119.856C75.3171 119.856 75.1411 119.784 74.9971 119.64C74.8531 119.496 74.7811 119.32 74.7811 119.112C74.7811 118.904 74.8531 118.728 74.9971 118.584C75.1411 118.44 75.3171 118.368 75.5251 118.368C75.7251 118.368 75.8931 118.44 76.0291 118.584C76.1731 118.728 76.2451 118.904 76.2451 119.112C76.2451 119.32 76.1731 119.496 76.0291 119.64C75.8931 119.784 75.7251 119.856 75.5251 119.856ZM76.0531 120.924V127.5H74.9611V120.924H76.0531ZM85.8222 120.804C86.3342 120.804 86.7902 120.912 87.1902 121.128C87.5902 121.336 87.9062 121.652 88.1382 122.076C88.3702 122.5 88.4862 123.016 88.4862 123.624V127.5H87.4062V123.78C87.4062 123.124 87.2422 122.624 86.9142 122.28C86.5942 121.928 86.1582 121.752 85.6062 121.752C85.0382 121.752 84.5862 121.936 84.2502 122.304C83.9142 122.664 83.7462 123.188 83.7462 123.876V127.5H82.6662V123.78C82.6662 123.124 82.5022 122.624 82.1742 122.28C81.8542 121.928 81.4182 121.752 80.8662 121.752C80.2982 121.752 79.8462 121.936 79.5102 122.304C79.1742 122.664 79.0062 123.188 79.0062 123.876V127.5H77.9142V120.924H79.0062V121.872C79.2222 121.528 79.5102 121.264 79.8702 121.08C80.2382 120.896 80.6422 120.804 81.0822 120.804C81.6342 120.804 82.1222 120.928 82.5462 121.176C82.9702 121.424 83.2862 121.788 83.4942 122.268C83.6782 121.804 83.9822 121.444 84.4062 121.188C84.8302 120.932 85.3022 120.804 85.8222 120.804ZM97.6887 119.136V125.316C97.6887 126.004 97.4767 126.556 97.0527 126.972C96.6287 127.38 96.0687 127.584 95.3727 127.584C94.6687 127.584 94.1047 127.376 93.6807 126.96C93.2567 126.536 93.0447 125.96 93.0447 125.232H94.1367C94.1447 125.64 94.2487 125.972 94.4487 126.228C94.6567 126.484 94.9647 126.612 95.3727 126.612C95.7807 126.612 96.0847 126.492 96.2847 126.252C96.4847 126.004 96.5847 125.692 96.5847 125.316V119.136H97.6887ZM102.708 127.608C102.092 127.608 101.532 127.468 101.028 127.188C100.532 126.908 100.14 126.512 99.852 126C99.572 125.48 99.432 124.88 99.432 124.2C99.432 123.528 99.576 122.936 99.864 122.424C100.16 121.904 100.56 121.508 101.064 121.236C101.568 120.956 102.132 120.816 102.756 120.816C103.38 120.816 103.944 120.956 104.448 121.236C104.952 121.508 105.348 121.9 105.636 122.412C105.932 122.924 106.08 123.52 106.08 124.2C106.08 124.88 105.928 125.48 105.624 126C105.328 126.512 104.924 126.908 104.412 127.188C103.9 127.468 103.332 127.608 102.708 127.608ZM102.708 126.648C103.1 126.648 103.468 126.556 103.812 126.372C104.156 126.188 104.432 125.912 104.64 125.544C104.856 125.176 104.964 124.728 104.964 124.2C104.964 123.672 104.86 123.224 104.652 122.856C104.444 122.488 104.172 122.216 103.836 122.04C103.5 121.856 103.136 121.764 102.744 121.764C102.344 121.764 101.976 121.856 101.64 122.04C101.312 122.216 101.048 122.488 100.848 122.856C100.648 123.224 100.548 123.672 100.548 124.2C100.548 124.736 100.644 125.188 100.836 125.556C101.036 125.924 101.3 126.2 101.628 126.384C101.956 126.56 102.316 126.648 102.708 126.648ZM108.608 122.148C108.832 121.756 109.16 121.436 109.592 121.188C110.024 120.94 110.516 120.816 111.068 120.816C111.66 120.816 112.192 120.956 112.664 121.236C113.136 121.516 113.508 121.912 113.78 122.424C114.052 122.928 114.188 123.516 114.188 124.188C114.188 124.852 114.052 125.444 113.78 125.964C113.508 126.484 113.132 126.888 112.652 127.176C112.18 127.464 111.652 127.608 111.068 127.608C110.5 127.608 110 127.484 109.568 127.236C109.144 126.988 108.824 126.672 108.608 126.288V127.5H107.516V118.62H108.608V122.148ZM113.072 124.188C113.072 123.692 112.972 123.26 112.772 122.892C112.572 122.524 112.3 122.244 111.956 122.052C111.62 121.86 111.248 121.764 110.84 121.764C110.44 121.764 110.068 121.864 109.724 122.064C109.388 122.256 109.116 122.54 108.908 122.916C108.708 123.284 108.608 123.712 108.608 124.2C108.608 124.696 108.708 125.132 108.908 125.508C109.116 125.876 109.388 126.16 109.724 126.36C110.068 126.552 110.44 126.648 110.84 126.648C111.248 126.648 111.62 126.552 111.956 126.36C112.3 126.16 112.572 125.876 112.772 125.508C112.972 125.132 113.072 124.692 113.072 124.188ZM117.953 127.608C117.449 127.608 116.997 127.524 116.597 127.356C116.197 127.18 115.881 126.94 115.649 126.636C115.417 126.324 115.289 125.968 115.265 125.568H116.393C116.425 125.896 116.577 126.164 116.849 126.372C117.129 126.58 117.493 126.684 117.941 126.684C118.357 126.684 118.685 126.592 118.925 126.408C119.165 126.224 119.285 125.992 119.285 125.712C119.285 125.424 119.157 125.212 118.901 125.076C118.645 124.932 118.249 124.792 117.713 124.656C117.225 124.528 116.825 124.4 116.513 124.272C116.209 124.136 115.945 123.94 115.721 123.684C115.505 123.42 115.397 123.076 115.397 122.652C115.397 122.316 115.497 122.008 115.697 121.728C115.897 121.448 116.181 121.228 116.549 121.068C116.917 120.9 117.337 120.816 117.809 120.816C118.537 120.816 119.125 121 119.573 121.368C120.021 121.736 120.261 122.24 120.293 122.88H119.201C119.177 122.536 119.037 122.26 118.781 122.052C118.533 121.844 118.197 121.74 117.773 121.74C117.381 121.74 117.069 121.824 116.837 121.992C116.605 122.16 116.489 122.38 116.489 122.652C116.489 122.868 116.557 123.048 116.693 123.192C116.837 123.328 117.013 123.44 117.221 123.528C117.437 123.608 117.733 123.7 118.109 123.804C118.581 123.932 118.965 124.06 119.261 124.188C119.557 124.308 119.809 124.492 120.017 124.74C120.233 124.988 120.345 125.312 120.353 125.712C120.353 126.072 120.253 126.396 120.053 126.684C119.853 126.972 119.569 127.2 119.201 127.368C118.841 127.528 118.425 127.608 117.953 127.608Z"
        fill="white"
    />
    <defs>
        <clipPath id="clip0_2563_113853">
            <rect
                width="50.6471"
                height="42"
                fill="white"
                transform="translate(40.1768 67.5)"
            />
        </clipPath>
    </defs>
</svg>