<svg width="24" height="24" viewBox="0 0 24 24" fill="none" xmlns="http://www.w3.org/2000/svg">
<g id="board">
<path id="Vector" opacity="0.4" d="M7.36156 17.7291H16.6416C18.9916 17.7291 20.9026 15.8181 20.9026 13.4691V8.37914C20.9026 6.03014 18.9916 4.11914 16.6416 4.11914H7.36156C5.01256 4.11914 3.10156 6.03014 3.10156 8.37914V13.4691C3.10156 15.8181 5.01256 17.7291 7.36156 17.7291Z" fill="#C71F2C"/>
<path id="Vector_2" d="M12.75 2.99805V4.11817H11.25V2.99805C11.25 2.58405 11.586 2.24805 12 2.24805C12.414 2.24805 12.75 2.58405 12.75 2.99805Z" fill="#C71F2C"/>
<path id="Vector_3" d="M7.79291 20.4735L10.488 17.7285H13.5135L16.2079 20.4735C16.4979 20.7695 16.4939 21.2435 16.1979 21.5335C16.0519 21.6775 15.8619 21.7485 15.6729 21.7485C15.4789 21.7485 15.2849 21.6735 15.1379 21.5235L12.0009 18.3285L8.86291 21.5235C8.57291 21.8195 8.09891 21.8245 7.80291 21.5335C7.50691 21.2435 7.50291 20.7695 7.79291 20.4735Z" fill="#C71F2C"/>
<path id="Vector_4" d="M9.08594 9.78711H14.9139C15.3279 9.78711 15.6639 9.45111 15.6639 9.03711C15.6639 8.62311 15.3279 8.28711 14.9139 8.28711H9.08594C8.67194 8.28711 8.33594 8.62311 8.33594 9.03711C8.33594 9.45111 8.67194 9.78711 9.08594 9.78711Z" fill="#C71F2C"/>
<path id="Vector_5" d="M9.08594 13.2676H12.1029C12.5169 13.2676 12.8529 12.9326 12.8529 12.5176C12.8529 12.1036 12.5169 11.7676 12.1029 11.7676H9.08594C8.67194 11.7676 8.33594 12.1036 8.33594 12.5176C8.33594 12.9326 8.67194 13.2676 9.08594 13.2676Z" fill="#C71F2C"/>
</g>
</svg>
