<svg width="24" height="24" viewBox="0 0 24 24" fill="none" xmlns="http://www.w3.org/2000/svg">
<g id="Chat profile">
<path id="Vector" opacity="0.4" fill-rule="evenodd" clip-rule="evenodd" d="M17.3618 3.47656H7.23978C4.92978 3.47656 3.05078 5.28712 3.05078 7.51048V14.1719C3.05078 16.3972 4.92978 18.2068 7.23978 18.2068H8.30878C8.81878 18.2068 9.29678 18.3978 9.65678 18.7453L11.0788 20.1133C11.4048 20.4282 11.8398 20.602 12.3008 20.602C12.7618 20.602 13.1958 20.4282 13.5228 20.1143L14.9438 18.7453C15.3058 18.3978 15.7838 18.2068 16.2938 18.2068H17.3618C19.6718 18.2068 21.5508 16.3972 21.5508 14.1719V7.51048C21.5508 5.28712 19.6718 3.47656 17.3618 3.47656Z" fill="#C71F2C"/>
<path id="Vector_2" d="M17.6754 18.1982C17.3743 16.4207 15.6677 14.7695 12.293 14.7695C8.93162 14.7695 7.23033 16.4212 6.92969 18.1983C7.0325 18.2056 7.13633 18.2092 7.24105 18.2092H8.31005C8.82005 18.2092 9.29805 18.4003 9.65805 18.7478L11.08 20.1158C11.406 20.4307 11.841 20.6044 12.302 20.6044C12.763 20.6044 13.197 20.4307 13.524 20.1167L14.945 18.7478C15.307 18.4003 15.785 18.2092 16.295 18.2092H17.363C17.4681 18.2092 17.5723 18.2055 17.6754 18.1982Z" fill="#C71F2C"/>
<path id="Vector_3" d="M8.89062 9.79404C8.89062 11.5987 10.4154 13.0677 12.2907 13.0677C14.1668 13.0677 15.6916 11.5987 15.6916 9.79404C15.6916 7.98856 14.1668 6.51953 12.2907 6.51953C10.4154 6.51953 8.89062 7.98856 8.89062 9.79404Z" fill="#C71F2C"/>
</g>
</svg>
