<svg width="16" height="16" viewBox="0 0 16 16" fill="none" xmlns="http://www.w3.org/2000/svg">
<g id="Building office">
<path id="Vector" fill-rule="evenodd" clip-rule="evenodd" d="M13.2915 5.95312H11.5828C11.4723 5.95312 11.3828 6.03909 11.3828 6.14512V14.0811C11.3828 14.1872 11.4723 14.2731 11.5828 14.2731H13.2915C13.9648 14.2731 14.5128 13.7477 14.5128 13.1019V7.12434C14.5128 6.47857 13.9648 5.95312 13.2915 5.95312Z" fill="black"/>
<path id="Vector_2" fill-rule="evenodd" clip-rule="evenodd" d="M7.74592 7.19937C7.71459 7.20513 7.68325 7.20769 7.65192 7.20769C7.41659 7.20769 7.20659 7.04769 7.16125 6.81729C7.10925 6.55744 7.28725 6.30272 7.55859 6.2528C7.82592 6.20288 8.09059 6.37056 8.14259 6.63168L8.14392 6.63808C8.19525 6.89857 8.01725 7.14945 7.74592 7.19937ZM7.16259 9.16417C7.10792 8.90433 7.28326 8.64833 7.55392 8.59649C7.82592 8.54465 8.08725 8.70977 8.14125 8.96961L8.14259 8.97601C8.19725 9.23585 8.02126 9.48865 7.75059 9.54049C7.71792 9.54689 7.68459 9.55009 7.65192 9.55009C7.41859 9.55009 7.20992 9.39201 7.16259 9.16417ZM7.74592 11.8394C7.71459 11.8451 7.68325 11.8477 7.65192 11.8477C7.41659 11.8477 7.20659 11.6877 7.16125 11.4573C7.10925 11.1975 7.28725 10.9427 7.55859 10.8928C7.82592 10.841 8.09059 11.0112 8.14259 11.2717L8.14392 11.2781C8.19525 11.5386 8.01725 11.7895 7.74592 11.8394ZM5.07795 7.19937C5.04662 7.20513 5.01528 7.20769 4.98395 7.20769C4.74861 7.20769 4.53861 7.04769 4.49328 6.81729C4.44128 6.55744 4.61928 6.30272 4.89061 6.2528C5.15795 6.20288 5.42261 6.37056 5.47461 6.63168L5.47595 6.63808C5.52728 6.89857 5.34928 7.14945 5.07795 7.19937ZM4.49461 9.16417C4.43995 8.90433 4.61528 8.64833 4.88595 8.59649C5.15595 8.54465 5.41928 8.70977 5.47328 8.96961L5.47461 8.97601C5.52928 9.23585 5.35328 9.48865 5.08261 9.54049C5.04995 9.54689 5.01661 9.55009 4.98395 9.55009C4.75061 9.55009 4.54195 9.39201 4.49461 9.16417ZM5.07795 11.8394C5.04662 11.8451 5.01528 11.8477 4.98395 11.8477C4.74861 11.8477 4.53861 11.6877 4.49328 11.4573C4.44128 11.1975 4.61928 10.9427 4.89061 10.8928C5.15795 10.841 5.42261 11.0112 5.47461 11.2717L5.47595 11.2781C5.52728 11.5386 5.34928 11.7895 5.07795 11.8394ZM10.5186 5.95791C10.5186 5.95618 10.5179 5.95451 10.5166 5.95328C10.5153 5.95205 10.5146 5.95039 10.5146 5.94865V3.28448C10.5146 2.63872 9.96725 2.11328 9.29392 2.11328H7.06925C6.39595 2.11328 5.84795 2.63872 5.84795 3.28448V3.77728C5.84795 3.88332 5.75841 3.96928 5.64795 3.96928H3.33395C2.66061 3.96928 2.11328 4.49472 2.11328 5.14048V13.1021C2.11328 13.7479 2.66061 14.2733 3.33395 14.2733H10.3186C10.4291 14.2733 10.5186 14.1873 10.5186 14.0813V5.95791Z" fill="black"/>
</g>
</svg>
