<svg width="16" height="16" viewBox="0 0 16 16" fill="none" xmlns="http://www.w3.org/2000/svg">
<g id="Call">
<path id="Vector" fill-rule="evenodd" clip-rule="evenodd" d="M14.3327 10.8222C12.5741 8.77416 11.6974 8.95784 10.7334 9.40776C10.0661 9.7188 9.49007 9.98888 7.99274 8.5508C6.49541 7.11272 6.77607 6.56043 7.10007 5.92107C7.57007 4.99499 7.76074 4.15147 5.62541 2.46379C5.11675 2.06379 4.56208 1.91019 3.98475 2.01771C2.76275 2.23723 1.89941 3.54283 1.90075 3.54283C1.35941 4.26987 0.618079 6.45611 5.39608 11.0436C8.53874 14.0612 10.5994 14.785 11.8501 14.785C12.5014 14.785 12.9321 14.5892 13.1814 14.417C13.1954 14.4094 14.5674 13.5934 14.7987 12.3972C14.9067 11.841 14.7501 11.3118 14.3327 10.8222Z" fill="black"/>
</g>
</svg>
