<svg width="16" height="16" viewBox="0 0 16 16" fill="none" xmlns="http://www.w3.org/2000/svg">
<g id="email">
<path id="Vector" fill-rule="evenodd" clip-rule="evenodd" d="M3.00064 4.55896L6.9173 7.74497C7.5873 8.25963 8.46064 8.26363 9.0813 7.7483L12.9986 4.55229C13.1606 4.86029 13.2653 5.21096 13.3053 5.59229L9.7173 8.51963C9.2313 8.92563 8.63397 9.12763 8.0273 9.12763C7.42597 9.12763 6.81597 8.92897 6.29597 8.52896L2.69597 5.60029C2.73597 5.21896 2.8393 4.86763 3.00064 4.55896ZM14.3346 5.93096C14.3346 5.72429 14.3133 5.52696 14.2813 5.33363C14.2606 5.18896 14.2286 5.05096 14.1933 4.91296C14.19 4.90029 14.1886 4.88696 14.1853 4.87429L14.1833 4.87629C14.0906 4.52896 13.9646 4.19963 13.7893 3.90629L13.794 3.90296C13.7873 3.89163 13.7786 3.88096 13.7713 3.86962C13.7673 3.86296 13.762 3.85696 13.758 3.84963C13.6473 3.67096 13.52 3.50696 13.382 3.35363C13.3686 3.33896 13.3566 3.32363 13.3433 3.30963C13.1986 3.15496 13.042 3.01496 12.872 2.89162C12.86 2.88296 12.8466 2.87496 12.8346 2.86629C12.6666 2.74763 12.4893 2.64429 12.3006 2.55896C12.2913 2.55496 12.2826 2.54963 12.2733 2.54496C12.0873 2.46363 11.8913 2.40162 11.6886 2.35562C11.6486 2.34629 11.608 2.33896 11.5666 2.33096C11.364 2.29296 11.1573 2.26696 10.9413 2.26629C10.9386 2.26629 10.9366 2.26562 10.9346 2.26562H5.06797C5.06597 2.26562 5.06397 2.26629 5.06197 2.26629C4.83464 2.26696 4.6173 2.29429 4.40664 2.33429C4.38397 2.33896 4.3613 2.34229 4.33864 2.34763C3.41597 2.54296 2.6613 3.10029 2.1933 3.90229L2.20864 3.91496C2.03397 4.20829 1.90864 4.53763 1.81664 4.88496L1.80997 4.87963C1.8013 4.91496 1.79664 4.95296 1.78797 4.98829C1.7633 5.09629 1.7393 5.20296 1.72264 5.31429C1.69064 5.51363 1.66797 5.71696 1.66797 5.93096V10.0656L1.66864 10.0696C1.66864 10.3376 1.69397 10.5963 1.74064 10.845C1.7453 10.8696 1.7553 10.8923 1.76064 10.917C1.80597 11.1383 1.86464 11.3523 1.9433 11.5536C1.98864 11.6716 2.0513 11.777 2.10664 11.8876C2.15397 11.9796 2.1933 12.077 2.2473 12.1636C2.36197 12.351 2.49397 12.5203 2.63797 12.6783C2.6393 12.6796 2.63997 12.6816 2.64197 12.683C2.67464 12.7196 2.69997 12.7643 2.73464 12.799C3.33464 13.399 4.13464 13.7323 5.06797 13.7323H10.9346C11.1546 13.7323 11.37 13.7103 11.58 13.6683C12.1973 13.555 12.734 13.2723 13.1726 12.8716C13.2033 12.8456 13.238 12.8263 13.268 12.799C13.2793 12.7876 13.2873 12.773 13.298 12.7616C13.9433 12.107 14.334 11.169 14.3346 10.0683V5.93096Z" fill="black"/>
</g>
</svg>
